<?xml version="1.0" encoding="UTF-8"?>
<svg xmlns="http://www.w3.org/2000/svg" xmlns:xlink="http://www.w3.org/1999/xlink" width="369.188571pt" height="169.2pt" viewBox="0 0 369.188571 169.2" version="1.2">
<defs>
<g>
<symbol overflow="visible" id="glyph0-0">
<path style="stroke:none;" d=""/>
</symbol>
<symbol overflow="visible" id="glyph0-1">
<path style="stroke:none;" d="M -2.84375 -7.953125 L -2.125 -7.953125 L -0.9375 -6.140625 L -1.609375 -6.140625 L -2.484375 -7.328125 L -3.359375 -6.140625 L -4.03125 -6.140625 Z M -2.484375 -5.578125 Z M -2.484375 -5.578125 "/>
</symbol>
<symbol overflow="visible" id="glyph1-0">
<path style="stroke:none;" d=""/>
</symbol>
<symbol overflow="visible" id="glyph1-1">
<path style="stroke:none;" d="M 2.46875 0.5 C 2.050781 1.195312 1.710938 1.632812 1.453125 1.8125 C 1.191406 1.988281 0.859375 2.078125 0.453125 2.078125 L -0.25 2.078125 L -0.09375 1.328125 L 0.421875 1.328125 C 0.671875 1.328125 0.878906 1.253906 1.046875 1.109375 C 1.222656 0.972656 1.421875 0.710938 1.640625 0.328125 L 1.921875 -0.203125 L 0.71875 -5.4375 L 1.65625 -5.4375 L 2.5625 -1.265625 L 5.0625 -5.4375 L 6 -5.4375 Z M 2.46875 0.5 "/>
</symbol>
<symbol overflow="visible" id="glyph2-0">
<path style="stroke:none;" d=""/>
</symbol>
<symbol overflow="visible" id="glyph2-1">
<path style="stroke:none;" d="M 0.625 -5.671875 L 1.9375 -5.671875 L 1.9375 0 L 0.625 0 Z M 0.625 -5.671875 "/>
</symbol>
<symbol overflow="visible" id="glyph2-2">
<path style="stroke:none;" d="M 2.453125 -1.84375 C 2.179688 -1.84375 1.976562 -1.796875 1.84375 -1.703125 C 1.707031 -1.609375 1.640625 -1.472656 1.640625 -1.296875 C 1.640625 -1.128906 1.691406 -1 1.796875 -0.90625 C 1.910156 -0.8125 2.066406 -0.765625 2.265625 -0.765625 C 2.515625 -0.765625 2.722656 -0.851562 2.890625 -1.03125 C 3.054688 -1.207031 3.140625 -1.425781 3.140625 -1.6875 L 3.140625 -1.84375 Z M 4.453125 -2.328125 L 4.453125 0 L 3.140625 0 L 3.140625 -0.609375 C 2.960938 -0.359375 2.765625 -0.175781 2.546875 -0.0625 C 2.328125 0.0507812 2.0625 0.109375 1.75 0.109375 C 1.320312 0.109375 0.976562 -0.015625 0.71875 -0.265625 C 0.457031 -0.515625 0.328125 -0.832031 0.328125 -1.21875 C 0.328125 -1.695312 0.488281 -2.046875 0.8125 -2.265625 C 1.144531 -2.492188 1.660156 -2.609375 2.359375 -2.609375 L 3.140625 -2.609375 L 3.140625 -2.71875 C 3.140625 -2.925781 3.054688 -3.078125 2.890625 -3.171875 C 2.722656 -3.265625 2.46875 -3.3125 2.125 -3.3125 C 1.84375 -3.3125 1.582031 -3.28125 1.34375 -3.21875 C 1.101562 -3.164062 0.878906 -3.085938 0.671875 -2.984375 L 0.671875 -3.96875 C 0.953125 -4.039062 1.234375 -4.09375 1.515625 -4.125 C 1.796875 -4.164062 2.078125 -4.1875 2.359375 -4.1875 C 3.097656 -4.1875 3.628906 -4.039062 3.953125 -3.75 C 4.285156 -3.457031 4.453125 -2.984375 4.453125 -2.328125 Z M 4.453125 -2.328125 "/>
</symbol>
<symbol overflow="visible" id="glyph2-3">
<path style="stroke:none;" d="M 0.09375 -4.078125 L 1.390625 -4.078125 L 2.5 -1.3125 L 3.421875 -4.078125 L 4.734375 -4.078125 L 3.015625 0.390625 C 2.835938 0.835938 2.632812 1.148438 2.40625 1.328125 C 2.175781 1.515625 1.875 1.609375 1.5 1.609375 L 0.75 1.609375 L 0.75 0.75 L 1.15625 0.75 C 1.375 0.75 1.535156 0.710938 1.640625 0.640625 C 1.742188 0.578125 1.820312 0.453125 1.875 0.265625 L 1.90625 0.15625 Z M 0.09375 -4.078125 "/>
</symbol>
<symbol overflow="visible" id="glyph2-4">
<path style="stroke:none;" d="M 4.703125 -2.046875 L 4.703125 -1.6875 L 1.65625 -1.6875 C 1.6875 -1.375 1.796875 -1.140625 1.984375 -0.984375 C 2.171875 -0.835938 2.4375 -0.765625 2.78125 -0.765625 C 3.050781 -0.765625 3.332031 -0.800781 3.625 -0.875 C 3.914062 -0.957031 4.210938 -1.082031 4.515625 -1.25 L 4.515625 -0.25 C 4.203125 -0.132812 3.890625 -0.046875 3.578125 0.015625 C 3.273438 0.078125 2.96875 0.109375 2.65625 0.109375 C 1.914062 0.109375 1.34375 -0.078125 0.9375 -0.453125 C 0.53125 -0.828125 0.328125 -1.351562 0.328125 -2.03125 C 0.328125 -2.695312 0.523438 -3.222656 0.921875 -3.609375 C 1.328125 -3.992188 1.878906 -4.1875 2.578125 -4.1875 C 3.222656 -4.1875 3.738281 -3.988281 4.125 -3.59375 C 4.507812 -3.207031 4.703125 -2.691406 4.703125 -2.046875 Z M 3.359375 -2.484375 C 3.359375 -2.734375 3.285156 -2.929688 3.140625 -3.078125 C 2.992188 -3.234375 2.804688 -3.3125 2.578125 -3.3125 C 2.328125 -3.3125 2.117188 -3.238281 1.953125 -3.09375 C 1.796875 -2.957031 1.703125 -2.753906 1.671875 -2.484375 Z M 3.359375 -2.484375 "/>
</symbol>
<symbol overflow="visible" id="glyph2-5">
<path style="stroke:none;" d="M 3.65625 -2.96875 C 3.539062 -3.019531 3.425781 -3.054688 3.3125 -3.078125 C 3.207031 -3.109375 3.097656 -3.125 2.984375 -3.125 C 2.640625 -3.125 2.378906 -3.015625 2.203125 -2.796875 C 2.023438 -2.585938 1.9375 -2.28125 1.9375 -1.875 L 1.9375 0 L 0.625 0 L 0.625 -4.078125 L 1.9375 -4.078125 L 1.9375 -3.40625 C 2.101562 -3.675781 2.296875 -3.875 2.515625 -4 C 2.734375 -4.125 2.992188 -4.1875 3.296875 -4.1875 C 3.335938 -4.1875 3.382812 -4.179688 3.4375 -4.171875 C 3.488281 -4.171875 3.5625 -4.164062 3.65625 -4.15625 Z M 3.65625 -2.96875 "/>
</symbol>
<symbol overflow="visible" id="glyph2-6">
<path style="stroke:none;" d=""/>
</symbol>
<symbol overflow="visible" id="glyph2-7">
<path style="stroke:none;" d="M 0.875 -0.96875 L 2.109375 -0.96875 L 2.109375 -4.484375 L 0.84375 -4.234375 L 0.84375 -5.1875 L 2.109375 -5.4375 L 3.4375 -5.4375 L 3.4375 -0.96875 L 4.6875 -0.96875 L 4.6875 0 L 0.875 0 Z M 0.875 -0.96875 "/>
</symbol>
<symbol overflow="visible" id="glyph2-8">
<path style="stroke:none;" d="M 2.15625 -1.03125 L 4.546875 -1.03125 L 4.546875 0 L 0.59375 0 L 0.59375 -1.03125 L 2.578125 -2.78125 C 2.753906 -2.945312 2.882812 -3.101562 2.96875 -3.25 C 3.050781 -3.40625 3.09375 -3.566406 3.09375 -3.734375 C 3.09375 -3.992188 3.003906 -4.195312 2.828125 -4.34375 C 2.660156 -4.5 2.4375 -4.578125 2.15625 -4.578125 C 1.9375 -4.578125 1.695312 -4.53125 1.4375 -4.4375 C 1.175781 -4.34375 0.898438 -4.207031 0.609375 -4.03125 L 0.609375 -5.21875 C 0.921875 -5.320312 1.226562 -5.398438 1.53125 -5.453125 C 1.84375 -5.515625 2.148438 -5.546875 2.453125 -5.546875 C 3.097656 -5.546875 3.601562 -5.398438 3.96875 -5.109375 C 4.332031 -4.828125 4.515625 -4.425781 4.515625 -3.90625 C 4.515625 -3.613281 4.4375 -3.335938 4.28125 -3.078125 C 4.125 -2.828125 3.800781 -2.484375 3.3125 -2.046875 Z M 2.15625 -1.03125 "/>
</symbol>
<symbol overflow="visible" id="glyph2-9">
<path style="stroke:none;" d="M 3.484375 -2.9375 C 3.847656 -2.84375 4.125 -2.675781 4.3125 -2.4375 C 4.507812 -2.207031 4.609375 -1.910156 4.609375 -1.546875 C 4.609375 -1.003906 4.398438 -0.59375 3.984375 -0.3125 C 3.566406 -0.03125 2.960938 0.109375 2.171875 0.109375 C 1.890625 0.109375 1.609375 0.0820312 1.328125 0.03125 C 1.046875 -0.0078125 0.769531 -0.078125 0.5 -0.171875 L 0.5 -1.25 C 0.757812 -1.113281 1.019531 -1.007812 1.28125 -0.9375 C 1.539062 -0.875 1.796875 -0.84375 2.046875 -0.84375 C 2.421875 -0.84375 2.707031 -0.90625 2.90625 -1.03125 C 3.101562 -1.164062 3.203125 -1.351562 3.203125 -1.59375 C 3.203125 -1.84375 3.097656 -2.03125 2.890625 -2.15625 C 2.691406 -2.289062 2.394531 -2.359375 2 -2.359375 L 1.4375 -2.359375 L 1.4375 -3.25 L 2.03125 -3.25 C 2.375 -3.25 2.632812 -3.304688 2.8125 -3.421875 C 2.988281 -3.535156 3.078125 -3.703125 3.078125 -3.921875 C 3.078125 -4.128906 2.988281 -4.289062 2.8125 -4.40625 C 2.644531 -4.519531 2.410156 -4.578125 2.109375 -4.578125 C 1.878906 -4.578125 1.648438 -4.550781 1.421875 -4.5 C 1.191406 -4.457031 0.960938 -4.382812 0.734375 -4.28125 L 0.734375 -5.3125 C 1.015625 -5.382812 1.289062 -5.441406 1.5625 -5.484375 C 1.832031 -5.523438 2.097656 -5.546875 2.359375 -5.546875 C 3.066406 -5.546875 3.59375 -5.425781 3.9375 -5.1875 C 4.289062 -4.957031 4.46875 -4.609375 4.46875 -4.140625 C 4.46875 -3.828125 4.382812 -3.566406 4.21875 -3.359375 C 4.050781 -3.160156 3.804688 -3.019531 3.484375 -2.9375 Z M 3.484375 -2.9375 "/>
</symbol>
<symbol overflow="visible" id="glyph3-0">
<path style="stroke:none;" d=""/>
</symbol>
<symbol overflow="visible" id="glyph3-1">
<path style="stroke:none;" d="M 3.390625 -3.46875 L 3.390625 -5.671875 L 4.0625 -5.671875 L 4.0625 0 L 3.390625 0 L 3.390625 -0.609375 C 3.253906 -0.367188 3.078125 -0.1875 2.859375 -0.0625 C 2.640625 0.0507812 2.378906 0.109375 2.078125 0.109375 C 1.585938 0.109375 1.1875 -0.0859375 0.875 -0.484375 C 0.5625 -0.878906 0.40625 -1.394531 0.40625 -2.03125 C 0.40625 -2.675781 0.5625 -3.195312 0.875 -3.59375 C 1.1875 -3.988281 1.585938 -4.1875 2.078125 -4.1875 C 2.378906 -4.1875 2.640625 -4.125 2.859375 -4 C 3.078125 -3.882812 3.253906 -3.707031 3.390625 -3.46875 Z M 1.109375 -2.03125 C 1.109375 -1.539062 1.207031 -1.15625 1.40625 -0.875 C 1.613281 -0.59375 1.894531 -0.453125 2.25 -0.453125 C 2.601562 -0.453125 2.878906 -0.59375 3.078125 -0.875 C 3.285156 -1.15625 3.390625 -1.539062 3.390625 -2.03125 C 3.390625 -2.53125 3.285156 -2.921875 3.078125 -3.203125 C 2.878906 -3.484375 2.601562 -3.625 2.25 -3.625 C 1.894531 -3.625 1.613281 -3.484375 1.40625 -3.203125 C 1.207031 -2.921875 1.109375 -2.53125 1.109375 -2.03125 Z M 1.109375 -2.03125 "/>
</symbol>
<symbol overflow="visible" id="glyph3-2">
<path style="stroke:none;" d="M 4.203125 -2.203125 L 4.203125 -1.875 L 1.109375 -1.875 C 1.140625 -1.414062 1.28125 -1.066406 1.53125 -0.828125 C 1.78125 -0.585938 2.128906 -0.46875 2.578125 -0.46875 C 2.828125 -0.46875 3.070312 -0.5 3.3125 -0.5625 C 3.5625 -0.625 3.804688 -0.71875 4.046875 -0.84375 L 4.046875 -0.203125 C 3.796875 -0.109375 3.546875 -0.0351562 3.296875 0.015625 C 3.046875 0.078125 2.789062 0.109375 2.53125 0.109375 C 1.875 0.109375 1.351562 -0.078125 0.96875 -0.453125 C 0.59375 -0.835938 0.40625 -1.351562 0.40625 -2 C 0.40625 -2.664062 0.585938 -3.195312 0.953125 -3.59375 C 1.316406 -3.988281 1.804688 -4.1875 2.421875 -4.1875 C 2.960938 -4.1875 3.394531 -4.007812 3.71875 -3.65625 C 4.039062 -3.300781 4.203125 -2.816406 4.203125 -2.203125 Z M 3.53125 -2.40625 C 3.519531 -2.769531 3.414062 -3.0625 3.21875 -3.28125 C 3.019531 -3.5 2.753906 -3.609375 2.421875 -3.609375 C 2.046875 -3.609375 1.742188 -3.503906 1.515625 -3.296875 C 1.296875 -3.085938 1.171875 -2.789062 1.140625 -2.40625 Z M 3.53125 -2.40625 "/>
</symbol>
<symbol overflow="visible" id="glyph3-3">
<path style="stroke:none;" d="M 1.359375 -0.609375 L 1.359375 1.546875 L 0.671875 1.546875 L 0.671875 -4.078125 L 1.359375 -4.078125 L 1.359375 -3.46875 C 1.492188 -3.707031 1.664062 -3.882812 1.875 -4 C 2.09375 -4.125 2.351562 -4.1875 2.65625 -4.1875 C 3.15625 -4.1875 3.554688 -3.988281 3.859375 -3.59375 C 4.171875 -3.195312 4.328125 -2.675781 4.328125 -2.03125 C 4.328125 -1.394531 4.171875 -0.878906 3.859375 -0.484375 C 3.554688 -0.0859375 3.15625 0.109375 2.65625 0.109375 C 2.351562 0.109375 2.09375 0.0507812 1.875 -0.0625 C 1.664062 -0.1875 1.492188 -0.367188 1.359375 -0.609375 Z M 3.640625 -2.03125 C 3.640625 -2.53125 3.535156 -2.921875 3.328125 -3.203125 C 3.128906 -3.484375 2.851562 -3.625 2.5 -3.625 C 2.144531 -3.625 1.863281 -3.484375 1.65625 -3.203125 C 1.457031 -2.921875 1.359375 -2.53125 1.359375 -2.03125 C 1.359375 -1.539062 1.457031 -1.15625 1.65625 -0.875 C 1.863281 -0.59375 2.144531 -0.453125 2.5 -0.453125 C 2.851562 -0.453125 3.128906 -0.59375 3.328125 -0.875 C 3.535156 -1.15625 3.640625 -1.539062 3.640625 -2.03125 Z M 3.640625 -2.03125 "/>
</symbol>
<symbol overflow="visible" id="glyph3-4">
<path style="stroke:none;" d="M 1.375 -5.25 L 1.375 -4.078125 L 2.75 -4.078125 L 2.75 -3.5625 L 1.375 -3.5625 L 1.375 -1.34375 C 1.375 -1.007812 1.414062 -0.796875 1.5 -0.703125 C 1.59375 -0.609375 1.78125 -0.5625 2.0625 -0.5625 L 2.75 -0.5625 L 2.75 0 L 2.0625 0 C 1.539062 0 1.179688 -0.09375 0.984375 -0.28125 C 0.785156 -0.476562 0.6875 -0.832031 0.6875 -1.34375 L 0.6875 -3.5625 L 0.203125 -3.5625 L 0.203125 -4.078125 L 0.6875 -4.078125 L 0.6875 -5.25 Z M 1.375 -5.25 "/>
</symbol>
<symbol overflow="visible" id="glyph3-5">
<path style="stroke:none;" d="M 4.09375 -2.46875 L 4.09375 0 L 3.421875 0 L 3.421875 -2.4375 C 3.421875 -2.820312 3.34375 -3.109375 3.1875 -3.296875 C 3.039062 -3.492188 2.820312 -3.59375 2.53125 -3.59375 C 2.164062 -3.59375 1.878906 -3.476562 1.671875 -3.25 C 1.460938 -3.019531 1.359375 -2.707031 1.359375 -2.3125 L 1.359375 0 L 0.671875 0 L 0.671875 -5.671875 L 1.359375 -5.671875 L 1.359375 -3.453125 C 1.515625 -3.691406 1.703125 -3.875 1.921875 -4 C 2.140625 -4.125 2.390625 -4.1875 2.671875 -4.1875 C 3.140625 -4.1875 3.492188 -4.039062 3.734375 -3.75 C 3.972656 -3.457031 4.09375 -3.03125 4.09375 -2.46875 Z M 4.09375 -2.46875 "/>
</symbol>
<symbol overflow="visible" id="glyph3-6">
<path style="stroke:none;" d=""/>
</symbol>
<symbol overflow="visible" id="glyph3-7">
<path style="stroke:none;" d="M 2.375 -4.953125 C 2 -4.953125 1.710938 -4.765625 1.515625 -4.390625 C 1.328125 -4.023438 1.234375 -3.46875 1.234375 -2.71875 C 1.234375 -1.96875 1.328125 -1.40625 1.515625 -1.03125 C 1.710938 -0.664062 2 -0.484375 2.375 -0.484375 C 2.757812 -0.484375 3.046875 -0.664062 3.234375 -1.03125 C 3.421875 -1.40625 3.515625 -1.96875 3.515625 -2.71875 C 3.515625 -3.46875 3.421875 -4.023438 3.234375 -4.390625 C 3.046875 -4.765625 2.757812 -4.953125 2.375 -4.953125 Z M 2.375 -5.546875 C 2.988281 -5.546875 3.453125 -5.300781 3.765625 -4.8125 C 4.085938 -4.332031 4.25 -3.632812 4.25 -2.71875 C 4.25 -1.800781 4.085938 -1.097656 3.765625 -0.609375 C 3.453125 -0.128906 2.988281 0.109375 2.375 0.109375 C 1.757812 0.109375 1.289062 -0.128906 0.96875 -0.609375 C 0.65625 -1.097656 0.5 -1.800781 0.5 -2.71875 C 0.5 -3.632812 0.65625 -4.332031 0.96875 -4.8125 C 1.289062 -5.300781 1.757812 -5.546875 2.375 -5.546875 Z M 2.375 -5.546875 "/>
</symbol>
<symbol overflow="visible" id="glyph3-8">
<path style="stroke:none;" d="M 2.3125 -5.671875 C 1.988281 -5.109375 1.75 -4.550781 1.59375 -4 C 1.4375 -3.457031 1.359375 -2.90625 1.359375 -2.34375 C 1.359375 -1.78125 1.4375 -1.222656 1.59375 -0.671875 C 1.75 -0.117188 1.988281 0.429688 2.3125 0.984375 L 1.734375 0.984375 C 1.367188 0.410156 1.09375 -0.148438 0.90625 -0.703125 C 0.726562 -1.253906 0.640625 -1.800781 0.640625 -2.34375 C 0.640625 -2.882812 0.726562 -3.429688 0.90625 -3.984375 C 1.09375 -4.535156 1.367188 -5.097656 1.734375 -5.671875 Z M 2.3125 -5.671875 "/>
</symbol>
<symbol overflow="visible" id="glyph3-9">
<path style="stroke:none;" d="M 0.703125 -4.078125 L 1.375 -4.078125 L 1.375 0 L 0.703125 0 Z M 0.703125 -5.671875 L 1.375 -5.671875 L 1.375 -4.828125 L 0.703125 -4.828125 Z M 0.703125 -5.671875 "/>
</symbol>
<symbol overflow="visible" id="glyph3-10">
<path style="stroke:none;" d="M 4.09375 -2.46875 L 4.09375 0 L 3.421875 0 L 3.421875 -2.4375 C 3.421875 -2.820312 3.34375 -3.109375 3.1875 -3.296875 C 3.039062 -3.492188 2.820312 -3.59375 2.53125 -3.59375 C 2.164062 -3.59375 1.878906 -3.476562 1.671875 -3.25 C 1.460938 -3.019531 1.359375 -2.707031 1.359375 -2.3125 L 1.359375 0 L 0.671875 0 L 0.671875 -4.078125 L 1.359375 -4.078125 L 1.359375 -3.453125 C 1.515625 -3.691406 1.703125 -3.875 1.921875 -4 C 2.140625 -4.125 2.390625 -4.1875 2.671875 -4.1875 C 3.140625 -4.1875 3.492188 -4.039062 3.734375 -3.75 C 3.972656 -3.457031 4.09375 -3.03125 4.09375 -2.46875 Z M 4.09375 -2.46875 "/>
</symbol>
<symbol overflow="visible" id="glyph3-11">
<path style="stroke:none;" d="M 0.640625 -1.609375 L 0.640625 -4.078125 L 1.3125 -4.078125 L 1.3125 -1.640625 C 1.3125 -1.253906 1.382812 -0.960938 1.53125 -0.765625 C 1.675781 -0.578125 1.898438 -0.484375 2.203125 -0.484375 C 2.566406 -0.484375 2.851562 -0.597656 3.0625 -0.828125 C 3.28125 -1.054688 3.390625 -1.367188 3.390625 -1.765625 L 3.390625 -4.078125 L 4.0625 -4.078125 L 4.0625 0 L 3.390625 0 L 3.390625 -0.625 C 3.222656 -0.375 3.03125 -0.1875 2.8125 -0.0625 C 2.601562 0.0507812 2.351562 0.109375 2.0625 0.109375 C 1.59375 0.109375 1.238281 -0.0351562 1 -0.328125 C 0.757812 -0.617188 0.640625 -1.046875 0.640625 -1.609375 Z M 2.328125 -4.1875 Z M 2.328125 -4.1875 "/>
</symbol>
<symbol overflow="visible" id="glyph3-12">
<path style="stroke:none;" d="M 3.3125 -3.96875 L 3.3125 -3.328125 C 3.113281 -3.421875 2.910156 -3.492188 2.703125 -3.546875 C 2.503906 -3.597656 2.296875 -3.625 2.078125 -3.625 C 1.742188 -3.625 1.492188 -3.570312 1.328125 -3.46875 C 1.160156 -3.363281 1.078125 -3.210938 1.078125 -3.015625 C 1.078125 -2.859375 1.132812 -2.734375 1.25 -2.640625 C 1.375 -2.554688 1.617188 -2.472656 1.984375 -2.390625 L 2.203125 -2.34375 C 2.679688 -2.238281 3.019531 -2.09375 3.21875 -1.90625 C 3.425781 -1.71875 3.53125 -1.457031 3.53125 -1.125 C 3.53125 -0.75 3.378906 -0.445312 3.078125 -0.21875 C 2.773438 0 2.363281 0.109375 1.84375 0.109375 C 1.625 0.109375 1.394531 0.0859375 1.15625 0.046875 C 0.914062 0.00390625 0.664062 -0.0625 0.40625 -0.15625 L 0.40625 -0.84375 C 0.65625 -0.71875 0.898438 -0.617188 1.140625 -0.546875 C 1.378906 -0.484375 1.617188 -0.453125 1.859375 -0.453125 C 2.171875 -0.453125 2.410156 -0.503906 2.578125 -0.609375 C 2.753906 -0.722656 2.84375 -0.878906 2.84375 -1.078125 C 2.84375 -1.253906 2.78125 -1.390625 2.65625 -1.484375 C 2.53125 -1.585938 2.257812 -1.6875 1.84375 -1.78125 L 1.609375 -1.828125 C 1.191406 -1.921875 0.890625 -2.054688 0.703125 -2.234375 C 0.523438 -2.410156 0.4375 -2.660156 0.4375 -2.984375 C 0.4375 -3.367188 0.570312 -3.664062 0.84375 -3.875 C 1.113281 -4.082031 1.5 -4.1875 2 -4.1875 C 2.25 -4.1875 2.484375 -4.164062 2.703125 -4.125 C 2.921875 -4.09375 3.125 -4.039062 3.3125 -3.96875 Z M 3.3125 -3.96875 "/>
</symbol>
<symbol overflow="visible" id="glyph3-13">
<path style="stroke:none;" d="M 0.59375 -5.671875 L 1.1875 -5.671875 C 1.550781 -5.097656 1.820312 -4.535156 2 -3.984375 C 2.175781 -3.429688 2.265625 -2.882812 2.265625 -2.34375 C 2.265625 -1.800781 2.175781 -1.253906 2 -0.703125 C 1.820312 -0.148438 1.550781 0.410156 1.1875 0.984375 L 0.59375 0.984375 C 0.914062 0.429688 1.15625 -0.117188 1.3125 -0.671875 C 1.476562 -1.222656 1.5625 -1.78125 1.5625 -2.34375 C 1.5625 -2.90625 1.476562 -3.457031 1.3125 -4 C 1.15625 -4.550781 0.914062 -5.109375 0.59375 -5.671875 Z M 0.59375 -5.671875 "/>
</symbol>
<symbol overflow="visible" id="glyph4-0">
<path style="stroke:none;" d=""/>
</symbol>
<symbol overflow="visible" id="glyph4-1">
<path style="stroke:none;" d="M 2.609375 -0.515625 C 2.960938 -0.515625 3.222656 -0.410156 3.390625 -0.203125 C 3.578125 0.00390625 3.640625 0.269531 3.578125 0.59375 C 3.515625 0.90625 3.363281 1.171875 3.125 1.390625 C 2.863281 1.617188 2.515625 1.734375 2.078125 1.734375 C 2.117188 1.535156 2.160156 1.332031 2.203125 1.125 C 2.378906 1.132812 2.535156 1.082031 2.671875 0.96875 C 2.773438 0.875 2.835938 0.773438 2.859375 0.671875 C 2.890625 0.535156 2.875 0.40625 2.8125 0.28125 C 2.75 0.164062 2.640625 0.109375 2.484375 0.109375 C 0.804688 0.109375 0.0820312 -0.472656 0.3125 -1.640625 C 0.46875 -2.453125 1.015625 -2.976562 1.953125 -3.21875 C 1.222656 -3.3125 0.925781 -3.707031 1.0625 -4.40625 C 1.164062 -4.9375 1.535156 -5.3125 2.171875 -5.53125 L 1.328125 -5.53125 L 1.46875 -6.28125 L 4.65625 -6.28125 L 4.515625 -5.53125 C 2.816406 -5.53125 1.894531 -5.140625 1.75 -4.359375 C 1.644531 -3.847656 2.300781 -3.578125 3.71875 -3.546875 L 3.59375 -2.859375 C 2.0625 -2.921875 1.21875 -2.515625 1.0625 -1.640625 C 0.925781 -0.910156 1.441406 -0.535156 2.609375 -0.515625 Z M 2.609375 -0.515625 "/>
</symbol>
<symbol overflow="visible" id="glyph5-0">
<path style="stroke:none;" d=""/>
</symbol>
<symbol overflow="visible" id="glyph5-1">
<path style="stroke:none;" d="M 3.46875 -3.15625 L 2.015625 -1.609375 L 2.90625 0 L 2.3125 0 L 1.640625 -1.25 L 0.484375 0 L -0.15625 0 L 1.40625 -1.671875 L 0.578125 -3.15625 L 1.171875 -3.15625 L 1.78125 -2.015625 L 2.84375 -3.15625 Z M 3.46875 -3.15625 "/>
</symbol>
<symbol overflow="visible" id="glyph6-0">
<path style="stroke:none;" d=""/>
</symbol>
<symbol overflow="visible" id="glyph6-1">
<path style="stroke:none;" d="M 0.5 -0.328125 L 1.15625 -0.328125 L 1.15625 -2.59375 L 0.4375 -2.4375 L 0.4375 -2.8125 L 1.15625 -2.953125 L 1.546875 -2.953125 L 1.546875 -0.328125 L 2.203125 -0.328125 L 2.203125 0 L 0.5 0 Z M 0.5 -0.328125 "/>
</symbol>
<symbol overflow="visible" id="glyph6-2">
<path style="stroke:none;" d="M 0.78125 -0.328125 L 2.171875 -0.328125 L 2.171875 0 L 0.296875 0 L 0.296875 -0.328125 C 0.453125 -0.492188 0.660156 -0.707031 0.921875 -0.96875 C 1.179688 -1.226562 1.34375 -1.398438 1.40625 -1.484375 C 1.53125 -1.617188 1.617188 -1.734375 1.671875 -1.828125 C 1.722656 -1.929688 1.75 -2.035156 1.75 -2.140625 C 1.75 -2.296875 1.691406 -2.421875 1.578125 -2.515625 C 1.472656 -2.617188 1.332031 -2.671875 1.15625 -2.671875 C 1.03125 -2.671875 0.894531 -2.644531 0.75 -2.59375 C 0.613281 -2.550781 0.46875 -2.488281 0.3125 -2.40625 L 0.3125 -2.8125 C 0.476562 -2.875 0.628906 -2.921875 0.765625 -2.953125 C 0.898438 -2.984375 1.03125 -3 1.15625 -3 C 1.457031 -3 1.695312 -2.921875 1.875 -2.765625 C 2.0625 -2.617188 2.15625 -2.414062 2.15625 -2.15625 C 2.15625 -2.039062 2.128906 -1.925781 2.078125 -1.8125 C 2.035156 -1.707031 1.957031 -1.582031 1.84375 -1.4375 C 1.800781 -1.394531 1.691406 -1.28125 1.515625 -1.09375 C 1.347656 -0.914062 1.101562 -0.660156 0.78125 -0.328125 Z M 0.78125 -0.328125 "/>
</symbol>
<symbol overflow="visible" id="glyph6-3">
<path style="stroke:none;" d="M 1.640625 -1.59375 C 1.828125 -1.550781 1.972656 -1.460938 2.078125 -1.328125 C 2.191406 -1.203125 2.25 -1.046875 2.25 -0.859375 C 2.25 -0.566406 2.148438 -0.335938 1.953125 -0.171875 C 1.753906 -0.015625 1.46875 0.0625 1.09375 0.0625 C 0.96875 0.0625 0.835938 0.046875 0.703125 0.015625 C 0.578125 -0.00390625 0.445312 -0.0390625 0.3125 -0.09375 L 0.3125 -0.46875 C 0.414062 -0.40625 0.535156 -0.359375 0.671875 -0.328125 C 0.804688 -0.296875 0.941406 -0.28125 1.078125 -0.28125 C 1.328125 -0.28125 1.519531 -0.328125 1.65625 -0.421875 C 1.789062 -0.523438 1.859375 -0.671875 1.859375 -0.859375 C 1.859375 -1.035156 1.796875 -1.171875 1.671875 -1.265625 C 1.546875 -1.359375 1.375 -1.40625 1.15625 -1.40625 L 0.8125 -1.40625 L 0.8125 -1.734375 L 1.171875 -1.734375 C 1.367188 -1.734375 1.519531 -1.769531 1.625 -1.84375 C 1.726562 -1.925781 1.78125 -2.046875 1.78125 -2.203125 C 1.78125 -2.347656 1.726562 -2.460938 1.625 -2.546875 C 1.519531 -2.628906 1.363281 -2.671875 1.15625 -2.671875 C 1.050781 -2.671875 0.9375 -2.65625 0.8125 -2.625 C 0.6875 -2.601562 0.546875 -2.566406 0.390625 -2.515625 L 0.390625 -2.875 C 0.546875 -2.914062 0.6875 -2.945312 0.8125 -2.96875 C 0.945312 -2.988281 1.078125 -3 1.203125 -3 C 1.503906 -3 1.742188 -2.929688 1.921875 -2.796875 C 2.097656 -2.660156 2.1875 -2.472656 2.1875 -2.234375 C 2.1875 -2.078125 2.140625 -1.941406 2.046875 -1.828125 C 1.953125 -1.710938 1.816406 -1.632812 1.640625 -1.59375 Z M 1.640625 -1.59375 "/>
</symbol>
<symbol overflow="visible" id="glyph6-4">
<path style="stroke:none;" d="M 1.53125 -2.609375 L 0.515625 -1.03125 L 1.53125 -1.03125 Z M 1.421875 -2.953125 L 1.921875 -2.953125 L 1.921875 -1.03125 L 2.34375 -1.03125 L 2.34375 -0.703125 L 1.921875 -0.703125 L 1.921875 0 L 1.53125 0 L 1.53125 -0.703125 L 0.203125 -0.703125 L 0.203125 -1.078125 Z M 1.421875 -2.953125 "/>
</symbol>
<symbol overflow="visible" id="glyph7-0">
<path style="stroke:none;" d=""/>
</symbol>
<symbol overflow="visible" id="glyph7-1">
<path style="stroke:none;" d="M 5.046875 -1.25 L 2.265625 -1.25 L 1.828125 0 L 0.046875 0 L 2.59375 -6.890625 L 4.71875 -6.890625 L 7.265625 0 L 5.484375 0 Z M 2.71875 -2.53125 L 4.609375 -2.53125 L 3.65625 -5.28125 Z M 2.71875 -2.53125 "/>
</symbol>
<symbol overflow="visible" id="glyph7-2">
<path style="stroke:none;" d="M 3.625 -4.21875 C 3.90625 -4.21875 4.117188 -4.28125 4.265625 -4.40625 C 4.410156 -4.53125 4.484375 -4.710938 4.484375 -4.953125 C 4.484375 -5.191406 4.410156 -5.375 4.265625 -5.5 C 4.117188 -5.625 3.90625 -5.6875 3.625 -5.6875 L 2.640625 -5.6875 L 2.640625 -4.21875 Z M 3.6875 -1.203125 C 4.039062 -1.203125 4.304688 -1.273438 4.484375 -1.421875 C 4.671875 -1.578125 4.765625 -1.8125 4.765625 -2.125 C 4.765625 -2.414062 4.675781 -2.632812 4.5 -2.78125 C 4.320312 -2.9375 4.050781 -3.015625 3.6875 -3.015625 L 2.640625 -3.015625 L 2.640625 -1.203125 Z M 5.34375 -3.6875 C 5.71875 -3.570312 6.007812 -3.363281 6.21875 -3.0625 C 6.4375 -2.769531 6.546875 -2.40625 6.546875 -1.96875 C 6.546875 -1.3125 6.316406 -0.816406 5.859375 -0.484375 C 5.410156 -0.160156 4.726562 0 3.8125 0 L 0.875 0 L 0.875 -6.890625 L 3.53125 -6.890625 C 4.488281 -6.890625 5.179688 -6.742188 5.609375 -6.453125 C 6.046875 -6.171875 6.265625 -5.707031 6.265625 -5.0625 C 6.265625 -4.726562 6.179688 -4.441406 6.015625 -4.203125 C 5.859375 -3.972656 5.632812 -3.800781 5.34375 -3.6875 Z M 5.34375 -3.6875 "/>
</symbol>
<symbol overflow="visible" id="glyph7-3">
<path style="stroke:none;" d="M 6.328125 -0.375 C 6.003906 -0.207031 5.664062 -0.0820312 5.3125 0 C 4.957031 0.09375 4.585938 0.140625 4.203125 0.140625 C 3.054688 0.140625 2.144531 -0.179688 1.46875 -0.828125 C 0.800781 -1.472656 0.46875 -2.34375 0.46875 -3.4375 C 0.46875 -4.539062 0.800781 -5.410156 1.46875 -6.046875 C 2.144531 -6.691406 3.054688 -7.015625 4.203125 -7.015625 C 4.585938 -7.015625 4.957031 -6.96875 5.3125 -6.875 C 5.664062 -6.789062 6.003906 -6.664062 6.328125 -6.5 L 6.328125 -5.078125 C 6.003906 -5.304688 5.679688 -5.472656 5.359375 -5.578125 C 5.035156 -5.679688 4.695312 -5.734375 4.34375 -5.734375 C 3.707031 -5.734375 3.207031 -5.53125 2.84375 -5.125 C 2.488281 -4.71875 2.3125 -4.15625 2.3125 -3.4375 C 2.3125 -2.726562 2.488281 -2.171875 2.84375 -1.765625 C 3.207031 -1.359375 3.707031 -1.15625 4.34375 -1.15625 C 4.695312 -1.15625 5.035156 -1.207031 5.359375 -1.3125 C 5.679688 -1.414062 6.003906 -1.582031 6.328125 -1.8125 Z M 6.328125 -0.375 "/>
</symbol>
<symbol overflow="visible" id="glyph7-4">
<path style="stroke:none;" d="M -0.09375 -6.890625 L 1.84375 -6.890625 L 3.421875 -4.4375 L 4.984375 -6.890625 L 6.9375 -6.890625 L 4.3125 -2.90625 L 4.3125 0 L 2.53125 0 L 2.53125 -2.90625 Z M -0.09375 -6.890625 "/>
</symbol>
<symbol overflow="visible" id="glyph8-0">
<path style="stroke:none;" d=""/>
</symbol>
<symbol overflow="visible" id="glyph8-1">
<path style="stroke:none;" d="M 3.015625 -3.25 L 3.015625 -2.734375 C 2.859375 -2.816406 2.695312 -2.878906 2.53125 -2.921875 C 2.375 -2.960938 2.21875 -2.984375 2.0625 -2.984375 C 1.695312 -2.984375 1.414062 -2.867188 1.21875 -2.640625 C 1.019531 -2.410156 0.921875 -2.09375 0.921875 -1.6875 C 0.921875 -1.269531 1.019531 -0.945312 1.21875 -0.71875 C 1.414062 -0.488281 1.695312 -0.375 2.0625 -0.375 C 2.21875 -0.375 2.375 -0.394531 2.53125 -0.4375 C 2.695312 -0.488281 2.859375 -0.554688 3.015625 -0.640625 L 3.015625 -0.125 C 2.859375 -0.0507812 2.695312 0 2.53125 0.03125 C 2.363281 0.0703125 2.1875 0.09375 2 0.09375 C 1.488281 0.09375 1.082031 -0.0664062 0.78125 -0.390625 C 0.488281 -0.710938 0.34375 -1.144531 0.34375 -1.6875 C 0.34375 -2.238281 0.492188 -2.671875 0.796875 -2.984375 C 1.097656 -3.296875 1.507812 -3.453125 2.03125 -3.453125 C 2.207031 -3.453125 2.375 -3.429688 2.53125 -3.390625 C 2.695312 -3.359375 2.859375 -3.3125 3.015625 -3.25 Z M 3.015625 -3.25 "/>
</symbol>
<symbol overflow="visible" id="glyph8-2">
<path style="stroke:none;" d="M 1.890625 -2.984375 C 1.585938 -2.984375 1.347656 -2.867188 1.171875 -2.640625 C 1.003906 -2.410156 0.921875 -2.09375 0.921875 -1.6875 C 0.921875 -1.28125 1.003906 -0.957031 1.171875 -0.71875 C 1.347656 -0.488281 1.585938 -0.375 1.890625 -0.375 C 2.179688 -0.375 2.410156 -0.488281 2.578125 -0.71875 C 2.753906 -0.957031 2.84375 -1.28125 2.84375 -1.6875 C 2.84375 -2.082031 2.753906 -2.394531 2.578125 -2.625 C 2.410156 -2.863281 2.179688 -2.984375 1.890625 -2.984375 Z M 1.890625 -3.453125 C 2.367188 -3.453125 2.742188 -3.296875 3.015625 -2.984375 C 3.296875 -2.671875 3.4375 -2.238281 3.4375 -1.6875 C 3.4375 -1.132812 3.296875 -0.695312 3.015625 -0.375 C 2.742188 -0.0625 2.367188 0.09375 1.890625 0.09375 C 1.398438 0.09375 1.019531 -0.0625 0.75 -0.375 C 0.476562 -0.695312 0.34375 -1.132812 0.34375 -1.6875 C 0.34375 -2.238281 0.476562 -2.671875 0.75 -2.984375 C 1.019531 -3.296875 1.398438 -3.453125 1.890625 -3.453125 Z M 1.890625 -3.453125 "/>
</symbol>
<symbol overflow="visible" id="glyph8-3">
<path style="stroke:none;" d="M 3.390625 -2.03125 L 3.390625 0 L 2.828125 0 L 2.828125 -2.015625 C 2.828125 -2.335938 2.765625 -2.578125 2.640625 -2.734375 C 2.515625 -2.890625 2.328125 -2.96875 2.078125 -2.96875 C 1.785156 -2.96875 1.550781 -2.875 1.375 -2.6875 C 1.207031 -2.5 1.125 -2.238281 1.125 -1.90625 L 1.125 0 L 0.5625 0 L 0.5625 -3.375 L 1.125 -3.375 L 1.125 -2.84375 C 1.25 -3.050781 1.398438 -3.203125 1.578125 -3.296875 C 1.765625 -3.398438 1.972656 -3.453125 2.203125 -3.453125 C 2.597656 -3.453125 2.894531 -3.332031 3.09375 -3.09375 C 3.289062 -2.851562 3.390625 -2.5 3.390625 -2.03125 Z M 3.390625 -2.03125 "/>
</symbol>
<symbol overflow="visible" id="glyph8-4">
<path style="stroke:none;" d="M 0.578125 -3.375 L 1.140625 -3.375 L 1.140625 0.0625 C 1.140625 0.488281 1.054688 0.796875 0.890625 0.984375 C 0.722656 1.179688 0.457031 1.28125 0.09375 1.28125 L -0.109375 1.28125 L -0.109375 0.8125 L 0.03125 0.8125 C 0.25 0.8125 0.394531 0.757812 0.46875 0.65625 C 0.539062 0.5625 0.578125 0.363281 0.578125 0.0625 Z M 0.578125 -4.6875 L 1.140625 -4.6875 L 1.140625 -3.984375 L 0.578125 -3.984375 Z M 0.578125 -4.6875 "/>
</symbol>
<symbol overflow="visible" id="glyph8-5">
<path style="stroke:none;" d="M 2.84375 -3.875 L 2.84375 -2.1875 L 4.515625 -2.1875 L 4.515625 -1.671875 L 2.84375 -1.671875 L 2.84375 0 L 2.328125 0 L 2.328125 -1.671875 L 0.65625 -1.671875 L 0.65625 -2.1875 L 2.328125 -2.1875 L 2.328125 -3.875 Z M 2.84375 -3.875 "/>
</symbol>
<symbol overflow="visible" id="glyph8-6">
<path style="stroke:none;" d="M 2.53125 -2.859375 C 2.46875 -2.890625 2.398438 -2.914062 2.328125 -2.9375 C 2.253906 -2.957031 2.175781 -2.96875 2.09375 -2.96875 C 1.78125 -2.96875 1.539062 -2.863281 1.375 -2.65625 C 1.207031 -2.445312 1.125 -2.15625 1.125 -1.78125 L 1.125 0 L 0.5625 0 L 0.5625 -3.375 L 1.125 -3.375 L 1.125 -2.84375 C 1.238281 -3.050781 1.390625 -3.203125 1.578125 -3.296875 C 1.765625 -3.398438 1.988281 -3.453125 2.25 -3.453125 C 2.289062 -3.453125 2.332031 -3.445312 2.375 -3.4375 C 2.425781 -3.4375 2.476562 -3.429688 2.53125 -3.421875 Z M 2.53125 -2.859375 "/>
</symbol>
<symbol overflow="visible" id="glyph8-7">
<path style="stroke:none;" d="M 3.46875 -1.828125 L 3.46875 -1.5625 L 0.921875 -1.5625 C 0.941406 -1.175781 1.054688 -0.878906 1.265625 -0.671875 C 1.472656 -0.472656 1.757812 -0.375 2.125 -0.375 C 2.332031 -0.375 2.535156 -0.398438 2.734375 -0.453125 C 2.941406 -0.515625 3.144531 -0.597656 3.34375 -0.703125 L 3.34375 -0.171875 C 3.144531 -0.0859375 2.9375 -0.0234375 2.71875 0.015625 C 2.507812 0.0664062 2.300781 0.09375 2.09375 0.09375 C 1.550781 0.09375 1.125 -0.0625 0.8125 -0.375 C 0.5 -0.695312 0.34375 -1.125 0.34375 -1.65625 C 0.34375 -2.207031 0.488281 -2.644531 0.78125 -2.96875 C 1.082031 -3.289062 1.488281 -3.453125 2 -3.453125 C 2.445312 -3.453125 2.800781 -3.304688 3.0625 -3.015625 C 3.332031 -2.722656 3.46875 -2.328125 3.46875 -1.828125 Z M 2.921875 -1.984375 C 2.910156 -2.285156 2.820312 -2.523438 2.65625 -2.703125 C 2.488281 -2.890625 2.269531 -2.984375 2 -2.984375 C 1.6875 -2.984375 1.4375 -2.894531 1.25 -2.71875 C 1.070312 -2.550781 0.96875 -2.304688 0.9375 -1.984375 Z M 2.921875 -1.984375 "/>
</symbol>
<symbol overflow="visible" id="glyph8-8">
<path style="stroke:none;" d="M 2.109375 -1.703125 C 1.660156 -1.703125 1.347656 -1.648438 1.171875 -1.546875 C 1.003906 -1.441406 0.921875 -1.265625 0.921875 -1.015625 C 0.921875 -0.816406 0.984375 -0.660156 1.109375 -0.546875 C 1.242188 -0.429688 1.425781 -0.375 1.65625 -0.375 C 1.957031 -0.375 2.203125 -0.484375 2.390625 -0.703125 C 2.578125 -0.921875 2.671875 -1.210938 2.671875 -1.578125 L 2.671875 -1.703125 Z M 3.21875 -1.921875 L 3.21875 0 L 2.671875 0 L 2.671875 -0.515625 C 2.546875 -0.304688 2.382812 -0.148438 2.1875 -0.046875 C 2 0.046875 1.769531 0.09375 1.5 0.09375 C 1.15625 0.09375 0.878906 -0.00390625 0.671875 -0.203125 C 0.472656 -0.398438 0.375 -0.660156 0.375 -0.984375 C 0.375 -1.359375 0.5 -1.640625 0.75 -1.828125 C 1.007812 -2.023438 1.390625 -2.125 1.890625 -2.125 L 2.671875 -2.125 L 2.671875 -2.1875 C 2.671875 -2.4375 2.582031 -2.628906 2.40625 -2.765625 C 2.238281 -2.910156 2.003906 -2.984375 1.703125 -2.984375 C 1.515625 -2.984375 1.328125 -2.957031 1.140625 -2.90625 C 0.960938 -2.863281 0.789062 -2.796875 0.625 -2.703125 L 0.625 -3.21875 C 0.820312 -3.300781 1.015625 -3.359375 1.203125 -3.390625 C 1.398438 -3.429688 1.585938 -3.453125 1.765625 -3.453125 C 2.253906 -3.453125 2.617188 -3.328125 2.859375 -3.078125 C 3.097656 -2.828125 3.21875 -2.441406 3.21875 -1.921875 Z M 3.21875 -1.921875 "/>
</symbol>
<symbol overflow="visible" id="glyph8-9">
<path style="stroke:none;" d="M 2.796875 -2.859375 L 2.796875 -4.6875 L 3.359375 -4.6875 L 3.359375 0 L 2.796875 0 L 2.796875 -0.5 C 2.679688 -0.300781 2.535156 -0.148438 2.359375 -0.046875 C 2.179688 0.046875 1.96875 0.09375 1.71875 0.09375 C 1.3125 0.09375 0.976562 -0.0664062 0.71875 -0.390625 C 0.46875 -0.722656 0.34375 -1.15625 0.34375 -1.6875 C 0.34375 -2.21875 0.46875 -2.644531 0.71875 -2.96875 C 0.976562 -3.289062 1.3125 -3.453125 1.71875 -3.453125 C 1.96875 -3.453125 2.179688 -3.40625 2.359375 -3.3125 C 2.535156 -3.21875 2.679688 -3.066406 2.796875 -2.859375 Z M 0.90625 -1.6875 C 0.90625 -1.28125 0.988281 -0.957031 1.15625 -0.71875 C 1.332031 -0.488281 1.566406 -0.375 1.859375 -0.375 C 2.148438 -0.375 2.378906 -0.488281 2.546875 -0.71875 C 2.710938 -0.957031 2.796875 -1.28125 2.796875 -1.6875 C 2.796875 -2.09375 2.710938 -2.410156 2.546875 -2.640625 C 2.378906 -2.878906 2.148438 -3 1.859375 -3 C 1.566406 -3 1.332031 -2.878906 1.15625 -2.640625 C 0.988281 -2.410156 0.90625 -2.09375 0.90625 -1.6875 Z M 0.90625 -1.6875 "/>
</symbol>
<symbol overflow="visible" id="glyph8-10">
<path style="stroke:none;" d="M 0.53125 -1.328125 L 0.53125 -3.375 L 1.078125 -3.375 L 1.078125 -1.359375 C 1.078125 -1.035156 1.140625 -0.789062 1.265625 -0.625 C 1.390625 -0.46875 1.578125 -0.390625 1.828125 -0.390625 C 2.128906 -0.390625 2.363281 -0.484375 2.53125 -0.671875 C 2.707031 -0.867188 2.796875 -1.132812 2.796875 -1.46875 L 2.796875 -3.375 L 3.34375 -3.375 L 3.34375 0 L 2.796875 0 L 2.796875 -0.515625 C 2.660156 -0.316406 2.503906 -0.164062 2.328125 -0.0625 C 2.148438 0.0390625 1.941406 0.09375 1.703125 0.09375 C 1.316406 0.09375 1.023438 -0.0234375 0.828125 -0.265625 C 0.628906 -0.515625 0.53125 -0.867188 0.53125 -1.328125 Z M 1.921875 -3.453125 Z M 1.921875 -3.453125 "/>
</symbol>
<symbol overflow="visible" id="glyph8-11">
<path style="stroke:none;" d="M 1.125 -4.328125 L 1.125 -3.375 L 2.265625 -3.375 L 2.265625 -2.9375 L 1.125 -2.9375 L 1.125 -1.109375 C 1.125 -0.835938 1.160156 -0.660156 1.234375 -0.578125 C 1.316406 -0.503906 1.472656 -0.46875 1.703125 -0.46875 L 2.265625 -0.46875 L 2.265625 0 L 1.703125 0 C 1.273438 0 0.976562 -0.078125 0.8125 -0.234375 C 0.65625 -0.398438 0.578125 -0.691406 0.578125 -1.109375 L 0.578125 -2.9375 L 0.171875 -2.9375 L 0.171875 -3.375 L 0.578125 -3.375 L 0.578125 -4.328125 Z M 1.125 -4.328125 "/>
</symbol>
<symbol overflow="visible" id="glyph9-0">
<path style="stroke:none;" d=""/>
</symbol>
<symbol overflow="visible" id="glyph9-1">
<path style="stroke:none;" d="M 3.515625 -3.453125 L 3.40625 -2.875 C 3.257812 -2.96875 3.101562 -3.039062 2.9375 -3.09375 C 2.78125 -3.144531 2.617188 -3.171875 2.453125 -3.171875 C 2.265625 -3.171875 2.082031 -3.140625 1.90625 -3.078125 C 1.738281 -3.015625 1.597656 -2.921875 1.484375 -2.796875 C 1.304688 -2.609375 1.164062 -2.390625 1.0625 -2.140625 C 0.957031 -1.890625 0.90625 -1.628906 0.90625 -1.359375 C 0.90625 -1.035156 0.984375 -0.796875 1.140625 -0.640625 C 1.304688 -0.484375 1.554688 -0.40625 1.890625 -0.40625 C 2.054688 -0.40625 2.226562 -0.425781 2.40625 -0.46875 C 2.59375 -0.519531 2.785156 -0.597656 2.984375 -0.703125 L 2.875 -0.125 C 2.695312 -0.0507812 2.515625 0 2.328125 0.03125 C 2.148438 0.0703125 1.96875 0.09375 1.78125 0.09375 C 1.300781 0.09375 0.929688 -0.0234375 0.671875 -0.265625 C 0.421875 -0.503906 0.296875 -0.84375 0.296875 -1.28125 C 0.296875 -1.65625 0.363281 -2 0.5 -2.3125 C 0.632812 -2.625 0.832031 -2.90625 1.09375 -3.15625 C 1.269531 -3.320312 1.476562 -3.445312 1.71875 -3.53125 C 1.96875 -3.625 2.234375 -3.671875 2.515625 -3.671875 C 2.679688 -3.671875 2.847656 -3.648438 3.015625 -3.609375 C 3.179688 -3.578125 3.347656 -3.523438 3.515625 -3.453125 Z M 3.515625 -3.453125 "/>
</symbol>
<symbol overflow="visible" id="glyph9-2">
<path style="stroke:none;" d="M 3.53125 -2.046875 L 3.125 0 L 2.53125 0 L 2.640625 -0.546875 C 2.472656 -0.328125 2.273438 -0.164062 2.046875 -0.0625 C 1.828125 0.0390625 1.582031 0.09375 1.3125 0.09375 C 1.007812 0.09375 0.757812 0 0.5625 -0.1875 C 0.363281 -0.375 0.265625 -0.613281 0.265625 -0.90625 C 0.265625 -1.320312 0.429688 -1.648438 0.765625 -1.890625 C 1.097656 -2.140625 1.5625 -2.265625 2.15625 -2.265625 L 2.96875 -2.265625 L 3 -2.421875 C 3.007812 -2.441406 3.015625 -2.460938 3.015625 -2.484375 C 3.015625 -2.503906 3.015625 -2.535156 3.015625 -2.578125 C 3.015625 -2.765625 2.9375 -2.910156 2.78125 -3.015625 C 2.625 -3.117188 2.410156 -3.171875 2.140625 -3.171875 C 1.941406 -3.171875 1.738281 -3.144531 1.53125 -3.09375 C 1.332031 -3.050781 1.128906 -2.976562 0.921875 -2.875 L 1.015625 -3.421875 C 1.242188 -3.503906 1.460938 -3.566406 1.671875 -3.609375 C 1.890625 -3.648438 2.097656 -3.671875 2.296875 -3.671875 C 2.710938 -3.671875 3.03125 -3.578125 3.25 -3.390625 C 3.476562 -3.210938 3.59375 -2.945312 3.59375 -2.59375 C 3.59375 -2.53125 3.585938 -2.445312 3.578125 -2.34375 C 3.566406 -2.25 3.550781 -2.148438 3.53125 -2.046875 Z M 2.890625 -1.796875 L 2.296875 -1.796875 C 1.816406 -1.796875 1.457031 -1.734375 1.21875 -1.609375 C 0.988281 -1.484375 0.875 -1.285156 0.875 -1.015625 C 0.875 -0.828125 0.929688 -0.675781 1.046875 -0.5625 C 1.171875 -0.457031 1.335938 -0.40625 1.546875 -0.40625 C 1.867188 -0.40625 2.148438 -0.519531 2.390625 -0.75 C 2.628906 -0.976562 2.785156 -1.285156 2.859375 -1.671875 Z M 2.890625 -1.796875 "/>
</symbol>
<symbol overflow="visible" id="glyph9-3">
<path style="stroke:none;" d="M 2.921875 -3.046875 C 2.859375 -3.078125 2.789062 -3.097656 2.71875 -3.109375 C 2.644531 -3.128906 2.5625 -3.140625 2.46875 -3.140625 C 2.15625 -3.140625 1.878906 -3.019531 1.640625 -2.78125 C 1.410156 -2.539062 1.257812 -2.222656 1.1875 -1.828125 L 0.828125 0 L 0.234375 0 L 0.9375 -3.59375 L 1.515625 -3.59375 L 1.40625 -3.03125 C 1.5625 -3.238281 1.75 -3.394531 1.96875 -3.5 C 2.1875 -3.613281 2.414062 -3.671875 2.65625 -3.671875 C 2.726562 -3.671875 2.789062 -3.664062 2.84375 -3.65625 C 2.90625 -3.65625 2.96875 -3.644531 3.03125 -3.625 Z M 2.921875 -3.046875 "/>
</symbol>
<symbol overflow="visible" id="glyph9-4">
<path style="stroke:none;" d="M 1.625 0.328125 C 1.351562 0.785156 1.128906 1.070312 0.953125 1.1875 C 0.785156 1.300781 0.566406 1.359375 0.296875 1.359375 L -0.15625 1.359375 L -0.0625 0.875 L 0.28125 0.875 C 0.4375 0.875 0.570312 0.828125 0.6875 0.734375 C 0.8125 0.648438 0.941406 0.476562 1.078125 0.21875 L 1.265625 -0.125 L 0.46875 -3.59375 L 1.09375 -3.59375 L 1.6875 -0.84375 L 3.34375 -3.59375 L 3.953125 -3.59375 Z M 1.625 0.328125 "/>
</symbol>
<symbol overflow="visible" id="glyph9-5">
<path style="stroke:none;" d=""/>
</symbol>
<symbol overflow="visible" id="glyph9-6">
<path style="stroke:none;" d="M 3.9375 -3.59375 L 2.296875 -1.828125 L 3.296875 0 L 2.625 0 L 1.859375 -1.421875 L 0.546875 0 L -0.171875 0 L 1.59375 -1.890625 L 0.65625 -3.59375 L 1.328125 -3.59375 L 2.015625 -2.296875 L 3.21875 -3.59375 Z M 3.9375 -3.59375 "/>
</symbol>
<symbol overflow="visible" id="glyph9-7">
<path style="stroke:none;" d="M 2.421875 -4.78125 L 3.15625 -4.78125 L 4.03125 0 L 3.359375 0 L 3.15625 -1.234375 L 1.015625 -1.234375 L 0.328125 0 L -0.34375 0 Z M 2.65625 -4.140625 L 1.3125 -1.765625 L 3.0625 -1.765625 Z M 2.65625 -4.140625 "/>
</symbol>
<symbol overflow="visible" id="glyph10-0">
<path style="stroke:none;" d=""/>
</symbol>
<symbol overflow="visible" id="glyph10-1">
<path style="stroke:none;" d="M 1.859375 -1.8125 C 2.078125 -1.757812 2.25 -1.660156 2.375 -1.515625 C 2.5 -1.367188 2.5625 -1.1875 2.5625 -0.96875 C 2.5625 -0.644531 2.445312 -0.390625 2.21875 -0.203125 C 1.988281 -0.0234375 1.664062 0.0625 1.25 0.0625 C 1.101562 0.0625 0.957031 0.046875 0.8125 0.015625 C 0.664062 -0.00390625 0.507812 -0.0390625 0.34375 -0.09375 L 0.34375 -0.53125 C 0.46875 -0.457031 0.601562 -0.398438 0.75 -0.359375 C 0.90625 -0.328125 1.066406 -0.3125 1.234375 -0.3125 C 1.515625 -0.3125 1.726562 -0.367188 1.875 -0.484375 C 2.03125 -0.597656 2.109375 -0.757812 2.109375 -0.96875 C 2.109375 -1.164062 2.035156 -1.320312 1.890625 -1.4375 C 1.753906 -1.550781 1.5625 -1.609375 1.3125 -1.609375 L 0.921875 -1.609375 L 0.921875 -1.96875 L 1.34375 -1.96875 C 1.5625 -1.96875 1.726562 -2.015625 1.84375 -2.109375 C 1.96875 -2.203125 2.03125 -2.332031 2.03125 -2.5 C 2.03125 -2.664062 1.96875 -2.796875 1.84375 -2.890625 C 1.71875 -2.984375 1.539062 -3.03125 1.3125 -3.03125 C 1.1875 -3.03125 1.050781 -3.015625 0.90625 -2.984375 C 0.769531 -2.960938 0.617188 -2.921875 0.453125 -2.859375 L 0.453125 -3.265625 C 0.617188 -3.316406 0.773438 -3.351562 0.921875 -3.375 C 1.078125 -3.394531 1.222656 -3.40625 1.359375 -3.40625 C 1.703125 -3.40625 1.972656 -3.328125 2.171875 -3.171875 C 2.367188 -3.015625 2.46875 -2.804688 2.46875 -2.546875 C 2.46875 -2.359375 2.414062 -2.195312 2.3125 -2.0625 C 2.207031 -1.9375 2.054688 -1.851562 1.859375 -1.8125 Z M 1.859375 -1.8125 "/>
</symbol>
<symbol overflow="visible" id="glyph10-2">
<path style="stroke:none;" d="M 1.734375 -2.953125 L 0.59375 -1.171875 L 1.734375 -1.171875 Z M 1.625 -3.34375 L 2.1875 -3.34375 L 2.1875 -1.171875 L 2.671875 -1.171875 L 2.671875 -0.796875 L 2.1875 -0.796875 L 2.1875 0 L 1.734375 0 L 1.734375 -0.796875 L 0.21875 -0.796875 L 0.21875 -1.234375 Z M 1.625 -3.34375 "/>
</symbol>
<symbol overflow="visible" id="glyph11-0">
<path style="stroke:none;" d=""/>
</symbol>
<symbol overflow="visible" id="glyph11-1">
<path style="stroke:none;" d="M 2.984375 -1.84375 C 2.984375 -2.269531 2.894531 -2.597656 2.71875 -2.828125 C 2.539062 -3.066406 2.289062 -3.1875 1.96875 -3.1875 C 1.65625 -3.1875 1.410156 -3.066406 1.234375 -2.828125 C 1.054688 -2.597656 0.96875 -2.269531 0.96875 -1.84375 C 0.96875 -1.414062 1.054688 -1.082031 1.234375 -0.84375 C 1.410156 -0.613281 1.65625 -0.5 1.96875 -0.5 C 2.289062 -0.5 2.539062 -0.613281 2.71875 -0.84375 C 2.894531 -1.082031 2.984375 -1.414062 2.984375 -1.84375 Z M 3.5625 -0.453125 C 3.5625 0.160156 3.425781 0.613281 3.15625 0.90625 C 2.882812 1.207031 2.472656 1.359375 1.921875 1.359375 C 1.710938 1.359375 1.515625 1.34375 1.328125 1.3125 C 1.140625 1.28125 0.960938 1.234375 0.796875 1.171875 L 0.796875 0.609375 C 0.960938 0.703125 1.128906 0.769531 1.296875 0.8125 C 1.472656 0.851562 1.648438 0.875 1.828125 0.875 C 2.210938 0.875 2.5 0.769531 2.6875 0.5625 C 2.882812 0.363281 2.984375 0.0625 2.984375 -0.34375 L 2.984375 -0.625 C 2.859375 -0.414062 2.703125 -0.257812 2.515625 -0.15625 C 2.328125 -0.0507812 2.097656 0 1.828125 0 C 1.390625 0 1.035156 -0.164062 0.765625 -0.5 C 0.492188 -0.832031 0.359375 -1.28125 0.359375 -1.84375 C 0.359375 -2.394531 0.492188 -2.835938 0.765625 -3.171875 C 1.035156 -3.503906 1.390625 -3.671875 1.828125 -3.671875 C 2.097656 -3.671875 2.328125 -3.617188 2.515625 -3.515625 C 2.703125 -3.410156 2.859375 -3.253906 2.984375 -3.046875 L 2.984375 -3.59375 L 3.5625 -3.59375 Z M 3.5625 -0.453125 "/>
</symbol>
<symbol overflow="visible" id="glyph11-2">
<path style="stroke:none;" d="M 2.25 -1.796875 C 1.769531 -1.796875 1.4375 -1.742188 1.25 -1.640625 C 1.070312 -1.535156 0.984375 -1.347656 0.984375 -1.078125 C 0.984375 -0.867188 1.050781 -0.703125 1.1875 -0.578125 C 1.320312 -0.460938 1.507812 -0.40625 1.75 -0.40625 C 2.082031 -0.40625 2.34375 -0.519531 2.53125 -0.75 C 2.726562 -0.976562 2.828125 -1.285156 2.828125 -1.671875 L 2.828125 -1.796875 Z M 3.421875 -2.046875 L 3.421875 0 L 2.828125 0 L 2.828125 -0.546875 C 2.703125 -0.328125 2.535156 -0.164062 2.328125 -0.0625 C 2.128906 0.0390625 1.882812 0.09375 1.59375 0.09375 C 1.226562 0.09375 0.9375 -0.0078125 0.71875 -0.21875 C 0.5 -0.425781 0.390625 -0.703125 0.390625 -1.046875 C 0.390625 -1.453125 0.523438 -1.753906 0.796875 -1.953125 C 1.066406 -2.160156 1.472656 -2.265625 2.015625 -2.265625 L 2.828125 -2.265625 L 2.828125 -2.328125 C 2.828125 -2.597656 2.738281 -2.804688 2.5625 -2.953125 C 2.382812 -3.097656 2.132812 -3.171875 1.8125 -3.171875 C 1.613281 -3.171875 1.414062 -3.144531 1.21875 -3.09375 C 1.019531 -3.050781 0.832031 -2.976562 0.65625 -2.875 L 0.65625 -3.421875 C 0.875 -3.503906 1.082031 -3.566406 1.28125 -3.609375 C 1.488281 -3.648438 1.6875 -3.671875 1.875 -3.671875 C 2.394531 -3.671875 2.78125 -3.535156 3.03125 -3.265625 C 3.289062 -3.003906 3.421875 -2.597656 3.421875 -2.046875 Z M 3.421875 -2.046875 "/>
</symbol>
<symbol overflow="visible" id="glyph11-3">
<path style="stroke:none;" d="M 2.984375 -3.046875 L 2.984375 -4.984375 L 3.5625 -4.984375 L 3.5625 0 L 2.984375 0 L 2.984375 -0.53125 C 2.859375 -0.320312 2.703125 -0.164062 2.515625 -0.0625 C 2.328125 0.0390625 2.097656 0.09375 1.828125 0.09375 C 1.390625 0.09375 1.035156 -0.078125 0.765625 -0.421875 C 0.492188 -0.765625 0.359375 -1.222656 0.359375 -1.796875 C 0.359375 -2.359375 0.492188 -2.8125 0.765625 -3.15625 C 1.035156 -3.5 1.390625 -3.671875 1.828125 -3.671875 C 2.097656 -3.671875 2.328125 -3.617188 2.515625 -3.515625 C 2.703125 -3.410156 2.859375 -3.253906 2.984375 -3.046875 Z M 0.96875 -1.796875 C 0.96875 -1.359375 1.054688 -1.015625 1.234375 -0.765625 C 1.410156 -0.523438 1.65625 -0.40625 1.96875 -0.40625 C 2.28125 -0.40625 2.523438 -0.523438 2.703125 -0.765625 C 2.890625 -1.015625 2.984375 -1.359375 2.984375 -1.796875 C 2.984375 -2.222656 2.890625 -2.5625 2.703125 -2.8125 C 2.523438 -3.0625 2.28125 -3.1875 1.96875 -3.1875 C 1.65625 -3.1875 1.410156 -3.0625 1.234375 -2.8125 C 1.054688 -2.5625 0.96875 -2.222656 0.96875 -1.796875 Z M 0.96875 -1.796875 "/>
</symbol>
<symbol overflow="visible" id="glyph11-4">
<path style="stroke:none;" d="M 3.6875 -1.9375 L 3.6875 -1.65625 L 0.984375 -1.65625 C 1.003906 -1.25 1.125 -0.9375 1.34375 -0.71875 C 1.5625 -0.507812 1.867188 -0.40625 2.265625 -0.40625 C 2.484375 -0.40625 2.695312 -0.429688 2.90625 -0.484375 C 3.125 -0.546875 3.335938 -0.628906 3.546875 -0.734375 L 3.546875 -0.1875 C 3.335938 -0.09375 3.117188 -0.0234375 2.890625 0.015625 C 2.671875 0.0664062 2.445312 0.09375 2.21875 0.09375 C 1.644531 0.09375 1.191406 -0.0703125 0.859375 -0.40625 C 0.523438 -0.738281 0.359375 -1.191406 0.359375 -1.765625 C 0.359375 -2.347656 0.515625 -2.8125 0.828125 -3.15625 C 1.148438 -3.5 1.582031 -3.671875 2.125 -3.671875 C 2.601562 -3.671875 2.984375 -3.515625 3.265625 -3.203125 C 3.546875 -2.898438 3.6875 -2.476562 3.6875 -1.9375 Z M 3.09375 -2.109375 C 3.09375 -2.429688 3.003906 -2.6875 2.828125 -2.875 C 2.648438 -3.070312 2.414062 -3.171875 2.125 -3.171875 C 1.800781 -3.171875 1.539062 -3.078125 1.34375 -2.890625 C 1.144531 -2.710938 1.03125 -2.453125 1 -2.109375 Z M 3.09375 -2.109375 "/>
</symbol>
<symbol overflow="visible" id="glyph11-5">
<path style="stroke:none;" d="M 1.203125 -4.609375 L 1.203125 -3.59375 L 2.421875 -3.59375 L 2.421875 -3.125 L 1.203125 -3.125 L 1.203125 -1.1875 C 1.203125 -0.894531 1.238281 -0.707031 1.3125 -0.625 C 1.394531 -0.539062 1.5625 -0.5 1.8125 -0.5 L 2.421875 -0.5 L 2.421875 0 L 1.8125 0 C 1.351562 0 1.035156 -0.0820312 0.859375 -0.25 C 0.691406 -0.425781 0.609375 -0.738281 0.609375 -1.1875 L 0.609375 -3.125 L 0.171875 -3.125 L 0.171875 -3.59375 L 0.609375 -3.59375 L 0.609375 -4.609375 Z M 1.203125 -4.609375 "/>
</symbol>
<symbol overflow="visible" id="glyph11-6">
<path style="stroke:none;" d=""/>
</symbol>
<symbol overflow="visible" id="glyph11-7">
<path style="stroke:none;" d="M 2.03125 -4.984375 C 1.75 -4.492188 1.535156 -4.003906 1.390625 -3.515625 C 1.253906 -3.035156 1.1875 -2.550781 1.1875 -2.0625 C 1.1875 -1.5625 1.253906 -1.070312 1.390625 -0.59375 C 1.535156 -0.113281 1.75 0.367188 2.03125 0.859375 L 1.515625 0.859375 C 1.203125 0.359375 0.960938 -0.128906 0.796875 -0.609375 C 0.640625 -1.097656 0.5625 -1.582031 0.5625 -2.0625 C 0.5625 -2.539062 0.640625 -3.019531 0.796875 -3.5 C 0.953125 -3.976562 1.191406 -4.472656 1.515625 -4.984375 Z M 2.03125 -4.984375 "/>
</symbol>
<symbol overflow="visible" id="glyph11-8">
<path style="stroke:none;" d="M 3.203125 -3.453125 L 3.203125 -2.90625 C 3.035156 -2.988281 2.867188 -3.050781 2.703125 -3.09375 C 2.535156 -3.144531 2.363281 -3.171875 2.1875 -3.171875 C 1.8125 -3.171875 1.515625 -3.050781 1.296875 -2.8125 C 1.085938 -2.570312 0.984375 -2.234375 0.984375 -1.796875 C 0.984375 -1.359375 1.085938 -1.015625 1.296875 -0.765625 C 1.515625 -0.523438 1.8125 -0.40625 2.1875 -0.40625 C 2.363281 -0.40625 2.535156 -0.425781 2.703125 -0.46875 C 2.867188 -0.519531 3.035156 -0.59375 3.203125 -0.6875 L 3.203125 -0.140625 C 3.035156 -0.0546875 2.863281 0 2.6875 0.03125 C 2.507812 0.0703125 2.320312 0.09375 2.125 0.09375 C 1.582031 0.09375 1.148438 -0.0703125 0.828125 -0.40625 C 0.515625 -0.75 0.359375 -1.210938 0.359375 -1.796875 C 0.359375 -2.378906 0.519531 -2.835938 0.84375 -3.171875 C 1.164062 -3.503906 1.609375 -3.671875 2.171875 -3.671875 C 2.347656 -3.671875 2.519531 -3.648438 2.6875 -3.609375 C 2.863281 -3.578125 3.035156 -3.523438 3.203125 -3.453125 Z M 3.203125 -3.453125 "/>
</symbol>
<symbol overflow="visible" id="glyph11-9">
<path style="stroke:none;" d="M 2.015625 -3.171875 C 1.691406 -3.171875 1.4375 -3.046875 1.25 -2.796875 C 1.070312 -2.554688 0.984375 -2.222656 0.984375 -1.796875 C 0.984375 -1.359375 1.070312 -1.015625 1.25 -0.765625 C 1.4375 -0.523438 1.691406 -0.40625 2.015625 -0.40625 C 2.328125 -0.40625 2.570312 -0.53125 2.75 -0.78125 C 2.9375 -1.03125 3.03125 -1.367188 3.03125 -1.796875 C 3.03125 -2.210938 2.9375 -2.546875 2.75 -2.796875 C 2.570312 -3.046875 2.328125 -3.171875 2.015625 -3.171875 Z M 2.015625 -3.671875 C 2.523438 -3.671875 2.925781 -3.503906 3.21875 -3.171875 C 3.507812 -2.835938 3.65625 -2.378906 3.65625 -1.796875 C 3.65625 -1.203125 3.507812 -0.738281 3.21875 -0.40625 C 2.925781 -0.0703125 2.523438 0.09375 2.015625 0.09375 C 1.492188 0.09375 1.085938 -0.0703125 0.796875 -0.40625 C 0.503906 -0.738281 0.359375 -1.203125 0.359375 -1.796875 C 0.359375 -2.378906 0.503906 -2.835938 0.796875 -3.171875 C 1.085938 -3.503906 1.492188 -3.671875 2.015625 -3.671875 Z M 2.015625 -3.671875 "/>
</symbol>
<symbol overflow="visible" id="glyph11-10">
<path style="stroke:none;" d="M 3.40625 -2.90625 C 3.5625 -3.164062 3.738281 -3.359375 3.9375 -3.484375 C 4.144531 -3.609375 4.390625 -3.671875 4.671875 -3.671875 C 5.035156 -3.671875 5.316406 -3.539062 5.515625 -3.28125 C 5.722656 -3.019531 5.828125 -2.648438 5.828125 -2.171875 L 5.828125 0 L 5.25 0 L 5.25 -2.140625 C 5.25 -2.484375 5.1875 -2.738281 5.0625 -2.90625 C 4.9375 -3.070312 4.75 -3.15625 4.5 -3.15625 C 4.195312 -3.15625 3.957031 -3.050781 3.78125 -2.84375 C 3.601562 -2.644531 3.515625 -2.375 3.515625 -2.03125 L 3.515625 0 L 2.921875 0 L 2.921875 -2.140625 C 2.921875 -2.492188 2.859375 -2.75 2.734375 -2.90625 C 2.609375 -3.070312 2.421875 -3.15625 2.171875 -3.15625 C 1.867188 -3.15625 1.628906 -3.050781 1.453125 -2.84375 C 1.273438 -2.644531 1.1875 -2.375 1.1875 -2.03125 L 1.1875 0 L 0.59375 0 L 0.59375 -3.59375 L 1.1875 -3.59375 L 1.1875 -3.03125 C 1.320312 -3.25 1.484375 -3.410156 1.671875 -3.515625 C 1.859375 -3.617188 2.082031 -3.671875 2.34375 -3.671875 C 2.601562 -3.671875 2.820312 -3.601562 3 -3.46875 C 3.1875 -3.34375 3.320312 -3.15625 3.40625 -2.90625 Z M 3.40625 -2.90625 "/>
</symbol>
<symbol overflow="visible" id="glyph11-11">
<path style="stroke:none;" d="M 1.1875 -0.53125 L 1.1875 1.359375 L 0.59375 1.359375 L 0.59375 -3.59375 L 1.1875 -3.59375 L 1.1875 -3.046875 C 1.3125 -3.253906 1.46875 -3.410156 1.65625 -3.515625 C 1.84375 -3.617188 2.070312 -3.671875 2.34375 -3.671875 C 2.769531 -3.671875 3.117188 -3.5 3.390625 -3.15625 C 3.671875 -2.8125 3.8125 -2.359375 3.8125 -1.796875 C 3.8125 -1.222656 3.671875 -0.765625 3.390625 -0.421875 C 3.117188 -0.078125 2.769531 0.09375 2.34375 0.09375 C 2.070312 0.09375 1.84375 0.0390625 1.65625 -0.0625 C 1.46875 -0.164062 1.3125 -0.320312 1.1875 -0.53125 Z M 3.1875 -1.796875 C 3.1875 -2.222656 3.097656 -2.5625 2.921875 -2.8125 C 2.742188 -3.0625 2.5 -3.1875 2.1875 -3.1875 C 1.875 -3.1875 1.628906 -3.0625 1.453125 -2.8125 C 1.273438 -2.5625 1.1875 -2.222656 1.1875 -1.796875 C 1.1875 -1.359375 1.273438 -1.015625 1.453125 -0.765625 C 1.628906 -0.523438 1.875 -0.40625 2.1875 -0.40625 C 2.5 -0.40625 2.742188 -0.523438 2.921875 -0.765625 C 3.097656 -1.015625 3.1875 -1.359375 3.1875 -1.796875 Z M 3.1875 -1.796875 "/>
</symbol>
<symbol overflow="visible" id="glyph11-12">
<path style="stroke:none;" d="M 0.5625 -1.421875 L 0.5625 -3.59375 L 1.140625 -3.59375 L 1.140625 -1.4375 C 1.140625 -1.09375 1.207031 -0.835938 1.34375 -0.671875 C 1.476562 -0.503906 1.675781 -0.421875 1.9375 -0.421875 C 2.257812 -0.421875 2.507812 -0.519531 2.6875 -0.71875 C 2.875 -0.925781 2.96875 -1.203125 2.96875 -1.546875 L 2.96875 -3.59375 L 3.5625 -3.59375 L 3.5625 0 L 2.96875 0 L 2.96875 -0.546875 C 2.832031 -0.328125 2.664062 -0.164062 2.46875 -0.0625 C 2.28125 0.0390625 2.0625 0.09375 1.8125 0.09375 C 1.40625 0.09375 1.09375 -0.03125 0.875 -0.28125 C 0.664062 -0.539062 0.5625 -0.921875 0.5625 -1.421875 Z M 2.046875 -3.671875 Z M 2.046875 -3.671875 "/>
</symbol>
<symbol overflow="visible" id="glyph11-13">
<path style="stroke:none;" d="M 3.609375 -2.171875 L 3.609375 0 L 3.015625 0 L 3.015625 -2.140625 C 3.015625 -2.484375 2.945312 -2.738281 2.8125 -2.90625 C 2.675781 -3.070312 2.476562 -3.15625 2.21875 -3.15625 C 1.894531 -3.15625 1.640625 -3.050781 1.453125 -2.84375 C 1.273438 -2.644531 1.1875 -2.375 1.1875 -2.03125 L 1.1875 0 L 0.59375 0 L 0.59375 -3.59375 L 1.1875 -3.59375 L 1.1875 -3.03125 C 1.332031 -3.25 1.5 -3.410156 1.6875 -3.515625 C 1.875 -3.617188 2.09375 -3.671875 2.34375 -3.671875 C 2.757812 -3.671875 3.070312 -3.539062 3.28125 -3.28125 C 3.5 -3.03125 3.609375 -2.660156 3.609375 -2.171875 Z M 3.609375 -2.171875 "/>
</symbol>
<symbol overflow="visible" id="glyph11-14">
<path style="stroke:none;" d="M 0.53125 -4.984375 L 1.03125 -4.984375 C 1.351562 -4.472656 1.59375 -3.976562 1.75 -3.5 C 1.914062 -3.019531 2 -2.539062 2 -2.0625 C 2 -1.582031 1.914062 -1.097656 1.75 -0.609375 C 1.59375 -0.128906 1.351562 0.359375 1.03125 0.859375 L 0.53125 0.859375 C 0.8125 0.367188 1.019531 -0.113281 1.15625 -0.59375 C 1.300781 -1.070312 1.375 -1.5625 1.375 -2.0625 C 1.375 -2.550781 1.300781 -3.035156 1.15625 -3.515625 C 1.019531 -4.003906 0.8125 -4.492188 0.53125 -4.984375 Z M 0.53125 -4.984375 "/>
</symbol>
<symbol overflow="visible" id="glyph11-15">
<path style="stroke:none;" d="M 0.625 -3.59375 L 1.203125 -3.59375 L 1.203125 0 L 0.625 0 Z M 0.625 -4.984375 L 1.203125 -4.984375 L 1.203125 -4.234375 L 0.625 -4.234375 Z M 0.625 -4.984375 "/>
</symbol>
<symbol overflow="visible" id="glyph11-16">
<path style="stroke:none;" d="M 2.109375 0.328125 C 1.941406 0.753906 1.78125 1.03125 1.625 1.15625 C 1.46875 1.289062 1.253906 1.359375 0.984375 1.359375 L 0.515625 1.359375 L 0.515625 0.875 L 0.859375 0.875 C 1.023438 0.875 1.148438 0.832031 1.234375 0.75 C 1.328125 0.675781 1.429688 0.5 1.546875 0.21875 L 1.640625 -0.0625 L 0.203125 -3.59375 L 0.828125 -3.59375 L 1.9375 -0.78125 L 3.0625 -3.59375 L 3.6875 -3.59375 Z M 2.109375 0.328125 "/>
</symbol>
<symbol overflow="visible" id="glyph11-17">
<path style="stroke:none;" d="M 2.703125 -3.03125 C 2.628906 -3.070312 2.550781 -3.101562 2.46875 -3.125 C 2.394531 -3.144531 2.3125 -3.15625 2.21875 -3.15625 C 1.882812 -3.15625 1.628906 -3.046875 1.453125 -2.828125 C 1.273438 -2.609375 1.1875 -2.296875 1.1875 -1.890625 L 1.1875 0 L 0.59375 0 L 0.59375 -3.59375 L 1.1875 -3.59375 L 1.1875 -3.03125 C 1.3125 -3.25 1.472656 -3.410156 1.671875 -3.515625 C 1.867188 -3.617188 2.109375 -3.671875 2.390625 -3.671875 C 2.429688 -3.671875 2.476562 -3.664062 2.53125 -3.65625 C 2.582031 -3.65625 2.632812 -3.648438 2.6875 -3.640625 Z M 2.703125 -3.03125 "/>
</symbol>
<symbol overflow="visible" id="glyph11-18">
<path style="stroke:none;" d="M 2.90625 -3.484375 L 2.90625 -2.921875 C 2.738281 -3.003906 2.566406 -3.066406 2.390625 -3.109375 C 2.210938 -3.160156 2.023438 -3.1875 1.828125 -3.1875 C 1.535156 -3.1875 1.316406 -3.140625 1.171875 -3.046875 C 1.023438 -2.953125 0.953125 -2.816406 0.953125 -2.640625 C 0.953125 -2.503906 1.003906 -2.394531 1.109375 -2.3125 C 1.210938 -2.238281 1.421875 -2.164062 1.734375 -2.09375 L 1.9375 -2.046875 C 2.351562 -1.960938 2.648438 -1.835938 2.828125 -1.671875 C 3.003906 -1.503906 3.09375 -1.273438 3.09375 -0.984375 C 3.09375 -0.648438 2.960938 -0.382812 2.703125 -0.1875 C 2.441406 0 2.078125 0.09375 1.609375 0.09375 C 1.421875 0.09375 1.222656 0.0703125 1.015625 0.03125 C 0.804688 0 0.585938 -0.0507812 0.359375 -0.125 L 0.359375 -0.734375 C 0.578125 -0.628906 0.789062 -0.546875 1 -0.484375 C 1.207031 -0.429688 1.414062 -0.40625 1.625 -0.40625 C 1.90625 -0.40625 2.117188 -0.453125 2.265625 -0.546875 C 2.421875 -0.640625 2.5 -0.769531 2.5 -0.9375 C 2.5 -1.101562 2.441406 -1.226562 2.328125 -1.3125 C 2.222656 -1.394531 1.988281 -1.476562 1.625 -1.5625 L 1.421875 -1.609375 C 1.054688 -1.679688 0.789062 -1.796875 0.625 -1.953125 C 0.457031 -2.117188 0.375 -2.34375 0.375 -2.625 C 0.375 -2.957031 0.492188 -3.210938 0.734375 -3.390625 C 0.972656 -3.578125 1.316406 -3.671875 1.765625 -3.671875 C 1.984375 -3.671875 2.1875 -3.65625 2.375 -3.625 C 2.5625 -3.59375 2.738281 -3.546875 2.90625 -3.484375 Z M 2.90625 -3.484375 "/>
</symbol>
</g>
<clipPath id="clip1">
  <path d="M 0.464844 0 L 367.917969 0 L 367.917969 168.402344 L 0.464844 168.402344 Z M 0.464844 0 "/>
</clipPath>
<clipPath id="clip2">
  <path d="M 1.898438 142 L 41 142 L 41 166.96875 L 1.898438 166.96875 Z M 1.898438 142 "/>
</clipPath>
<clipPath id="clip3">
  <path d="M 102 142 L 142 142 L 142 166.96875 L 102 166.96875 Z M 102 142 "/>
</clipPath>
<clipPath id="clip4">
  <path d="M 172 142 L 211 142 L 211 166.96875 L 172 166.96875 Z M 172 142 "/>
</clipPath>
<clipPath id="clip5">
  <path d="M 241 142 L 281 142 L 281 166.96875 L 241 166.96875 Z M 241 142 "/>
</clipPath>
</defs>
<g id="surface1">
<g clip-path="url(#clip1)" clip-rule="nonzero">
<path style=" stroke:none;fill-rule:nonzero;fill:rgb(100%,100%,100%);fill-opacity:1;" d="M 0.464844 168.402344 L 367.917969 168.402344 L 367.917969 0 L 0.464844 0 Z M 0.464844 168.402344 "/>
</g>
<path style="fill:none;stroke-width:0.8;stroke-linecap:butt;stroke-linejoin:round;stroke:rgb(87.841797%,87.841797%,87.841797%);stroke-opacity:1;stroke-dasharray:0.8,1.6;stroke-miterlimit:10;" d="M 87.132662 22.945337 L 87.132662 154.855151 " transform="matrix(0.995294,0,0,-0.995294,0.464874,168.403765)"/>
<path style="fill:none;stroke-width:0.8;stroke-linecap:butt;stroke-linejoin:round;stroke:rgb(87.841797%,87.841797%,87.841797%);stroke-opacity:1;stroke-dasharray:0.8,1.6;stroke-miterlimit:10;" d="M 176.812497 22.945337 L 176.812497 154.855151 " transform="matrix(0.995294,0,0,-0.995294,0.464874,168.403765)"/>
<path style="fill:none;stroke-width:0.8;stroke-linecap:butt;stroke-linejoin:round;stroke:rgb(87.841797%,87.841797%,87.841797%);stroke-opacity:1;stroke-dasharray:0.8,1.6;stroke-miterlimit:10;" d="M 262.504818 22.945337 L 262.504818 154.855151 " transform="matrix(0.995294,0,0,-0.995294,0.464874,168.403765)"/>
<path style="fill:none;stroke-width:1;stroke-linecap:round;stroke-linejoin:round;stroke:rgb(26.66626%,26.66626%,26.66626%);stroke-opacity:1;stroke-miterlimit:10;" d="M 55.644639 127.448836 C 71.453409 126.126206 86.893254 124.831049 101.960251 123.571214 " transform="matrix(0.995294,0,0,-0.995294,0.464874,168.403765)"/>
<path style="fill-rule:nonzero;fill:rgb(26.66626%,26.66626%,26.66626%);fill-opacity:1;stroke-width:1;stroke-linecap:round;stroke-linejoin:round;stroke:rgb(26.66626%,26.66626%,26.66626%);stroke-opacity:1;stroke-miterlimit:10;" d="M 98.90682 125.435455 L 101.960251 123.571214 L 98.639939 122.244659 Z M 98.90682 125.435455 " transform="matrix(0.995294,0,0,-0.995294,0.464874,168.403765)"/>
<path style="fill:none;stroke-width:1;stroke-linecap:round;stroke-linejoin:round;stroke:rgb(26.66626%,26.66626%,26.66626%);stroke-opacity:1;stroke-miterlimit:10;" d="M 55.216845 77.247752 C 71.316043 90.085509 87.120888 102.687783 102.635303 115.062422 " transform="matrix(0.995294,0,0,-0.995294,0.464874,168.403765)"/>
<path style="fill-rule:nonzero;fill:rgb(26.66626%,26.66626%,26.66626%);fill-opacity:1;stroke-width:1;stroke-linecap:round;stroke-linejoin:round;stroke:rgb(26.66626%,26.66626%,26.66626%);stroke-opacity:1;stroke-miterlimit:10;" d="M 99.134454 114.316726 L 102.635303 115.062422 L 101.128211 111.81668 Z M 99.134454 114.316726 " transform="matrix(0.995294,0,0,-0.995294,0.464874,168.403765)"/>
<path style="fill:none;stroke-width:1;stroke-linecap:round;stroke-linejoin:round;stroke:rgb(26.66626%,26.66626%,26.66626%);stroke-opacity:1;stroke-miterlimit:10;" d="M 55.279641 126.451958 C 71.335667 114.991777 87.085565 103.747457 102.533261 92.718996 " transform="matrix(0.995294,0,0,-0.995294,0.464874,168.403765)"/>
<path style="fill-rule:nonzero;fill:rgb(26.66626%,26.66626%,26.66626%);fill-opacity:1;stroke-width:1;stroke-linecap:round;stroke-linejoin:round;stroke:rgb(26.66626%,26.66626%,26.66626%);stroke-opacity:1;stroke-miterlimit:10;" d="M 100.857405 95.882319 L 102.533261 92.718996 L 98.997088 93.276306 Z M 100.857405 95.882319 " transform="matrix(0.995294,0,0,-0.995294,0.464874,168.403765)"/>
<path style="fill:none;stroke-width:1;stroke-linecap:round;stroke-linejoin:round;stroke:rgb(26.66626%,26.66626%,26.66626%);stroke-opacity:1;stroke-miterlimit:10;" d="M 55.483726 106.726319 C 71.402387 99.622577 86.983523 92.667974 102.223208 85.870361 " transform="matrix(0.995294,0,0,-0.995294,0.464874,168.403765)"/>
<path style="fill-rule:nonzero;fill:rgb(26.66626%,26.66626%,26.66626%);fill-opacity:1;stroke-width:1;stroke-linecap:round;stroke-linejoin:round;stroke:rgb(26.66626%,26.66626%,26.66626%);stroke-opacity:1;stroke-miterlimit:10;" d="M 99.950795 88.633363 L 102.223208 85.870361 L 98.647788 85.713372 Z M 99.950795 88.633363 " transform="matrix(0.995294,0,0,-0.995294,0.464874,168.403765)"/>
<path style="fill:none;stroke-width:1;stroke-linecap:round;stroke-linejoin:round;stroke:rgb(61.959839%,61.959839%,61.959839%);stroke-opacity:1;stroke-dasharray:3,2;stroke-miterlimit:10;" d="M 55.522973 75.301092 C 76.064954 67.64004 96.257634 60.112428 116.101015 52.710407 " transform="matrix(0.995294,0,0,-0.995294,0.464874,168.403765)"/>
<path style="fill-rule:nonzero;fill:rgb(61.959839%,61.959839%,61.959839%);fill-opacity:1;stroke-width:1;stroke-linecap:round;stroke-linejoin:round;stroke:rgb(61.959839%,61.959839%,61.959839%);stroke-opacity:1;stroke-dasharray:3,2;stroke-miterlimit:10;" d="M 113.65984 55.328195 L 116.101015 52.710407 L 112.541295 52.32971 Z M 113.65984 55.328195 " transform="matrix(0.995294,0,0,-0.995294,0.464874,168.403765)"/>
<path style="fill:none;stroke-width:1;stroke-linecap:round;stroke-linejoin:round;stroke:rgb(61.959839%,61.959839%,61.959839%);stroke-opacity:1;stroke-dasharray:3,2;stroke-miterlimit:10;" d="M 148.852797 52.129549 C 162.840497 55.807011 176.471047 59.386355 189.740523 62.87543 " transform="matrix(0.995294,0,0,-0.995294,0.464874,168.403765)"/>
<path style="fill-rule:nonzero;fill:rgb(61.959839%,61.959839%,61.959839%);fill-opacity:1;stroke-width:1;stroke-linecap:round;stroke-linejoin:round;stroke:rgb(61.959839%,61.959839%,61.959839%);stroke-opacity:1;stroke-dasharray:3,2;stroke-miterlimit:10;" d="M 186.239673 63.609353 L 189.740523 62.87543 L 187.05209 60.512749 Z M 186.239673 63.609353 " transform="matrix(0.995294,0,0,-0.995294,0.464874,168.403765)"/>
<path style="fill:none;stroke-width:1;stroke-linecap:round;stroke-linejoin:round;stroke:rgb(26.66626%,26.66626%,26.66626%);stroke-opacity:1;stroke-miterlimit:10;" d="M 162.781626 83.998269 C 172.134232 81.05473 181.137538 78.221083 189.77977 75.497327 " transform="matrix(0.995294,0,0,-0.995294,0.464874,168.403765)"/>
<path style="fill-rule:nonzero;fill:rgb(26.66626%,26.66626%,26.66626%);fill-opacity:1;stroke-width:1;stroke-linecap:round;stroke-linejoin:round;stroke:rgb(26.66626%,26.66626%,26.66626%);stroke-opacity:1;stroke-miterlimit:10;" d="M 187.209079 77.9856 L 189.77977 75.497327 L 186.247522 74.932168 Z M 187.209079 77.9856 " transform="matrix(0.995294,0,0,-0.995294,0.464874,168.403765)"/>
<path style="fill:none;stroke-width:1;stroke-linecap:round;stroke-linejoin:round;stroke:rgb(61.959839%,61.959839%,61.959839%);stroke-opacity:1;stroke-dasharray:3,2;stroke-miterlimit:10;" d="M 162.86797 114.646402 C 176.816422 114.210758 190.388101 113.786889 203.586932 113.374793 " transform="matrix(0.995294,0,0,-0.995294,0.464874,168.403765)"/>
<path style="fill-rule:nonzero;fill:rgb(61.959839%,61.959839%,61.959839%);fill-opacity:1;stroke-width:1;stroke-linecap:round;stroke-linejoin:round;stroke:rgb(61.959839%,61.959839%,61.959839%);stroke-opacity:1;stroke-dasharray:3,2;stroke-miterlimit:10;" d="M 200.439307 115.074197 L 203.586932 113.374793 L 200.341189 111.87555 Z M 200.439307 115.074197 " transform="matrix(0.995294,0,0,-0.995294,0.464874,168.403765)"/>
<path style="fill:none;stroke-width:1;stroke-linecap:round;stroke-linejoin:round;stroke:rgb(61.959839%,61.959839%,61.959839%);stroke-opacity:1;stroke-dasharray:3,2;stroke-miterlimit:10;" d="M 236.582047 113.00587 C 249.211794 111.275068 261.472617 109.595288 273.364516 107.962605 " transform="matrix(0.995294,0,0,-0.995294,0.464874,168.403765)"/>
<path style="fill-rule:nonzero;fill:rgb(61.959839%,61.959839%,61.959839%);fill-opacity:1;stroke-width:1;stroke-linecap:round;stroke-linejoin:round;stroke:rgb(61.959839%,61.959839%,61.959839%);stroke-opacity:1;stroke-dasharray:3,2;stroke-miterlimit:10;" d="M 270.413127 109.983836 L 273.364516 107.962605 L 269.977483 106.812663 Z M 270.413127 109.983836 " transform="matrix(0.995294,0,0,-0.995294,0.464874,168.403765)"/>
<path style="fill:none;stroke-width:1;stroke-linecap:round;stroke-linejoin:round;stroke:rgb(26.66626%,26.66626%,26.66626%);stroke-opacity:1;stroke-miterlimit:10;" d="M 250.063458 73.01298 C 258.360314 80.261937 266.374591 87.263636 274.106288 94.022002 " transform="matrix(0.995294,0,0,-0.995294,0.464874,168.403765)"/>
<path style="fill-rule:nonzero;fill:rgb(26.66626%,26.66626%,26.66626%);fill-opacity:1;stroke-width:1;stroke-linecap:round;stroke-linejoin:round;stroke:rgb(26.66626%,26.66626%,26.66626%);stroke-opacity:1;stroke-miterlimit:10;" d="M 270.644686 93.119317 L 274.106288 94.022002 L 272.75226 90.709539 Z M 270.644686 93.119317 " transform="matrix(0.995294,0,0,-0.995294,0.464874,168.403765)"/>
<path style="fill:none;stroke-width:1;stroke-linecap:round;stroke-linejoin:round;stroke:rgb(27.058411%,15.293884%,62.744141%);stroke-opacity:1;stroke-miterlimit:10;" d="M 334.252611 104.673691 C 340.226033 104.673691 345.830533 104.673691 351.058259 104.673691 " transform="matrix(0.995294,0,0,-0.995294,0.464874,168.403765)"/>
<path style="fill-rule:nonzero;fill:rgb(27.058411%,15.293884%,62.744141%);fill-opacity:1;stroke-width:1;stroke-linecap:round;stroke-linejoin:round;stroke:rgb(27.058411%,15.293884%,62.744141%);stroke-opacity:1;stroke-miterlimit:10;" d="M 347.859612 106.274976 L 351.058259 104.673691 L 347.859612 103.072405 Z M 347.859612 106.274976 " transform="matrix(0.995294,0,0,-0.995294,0.464874,168.403765)"/>
<path style="fill-rule:nonzero;fill:rgb(84.312439%,89.01825%,94.116211%);fill-opacity:1;stroke-width:1.1;stroke-linecap:butt;stroke-linejoin:miter;stroke:rgb(48.626709%,55.293274%,62.744141%);stroke-opacity:1;stroke-miterlimit:10;" d="M 30.934607 119.870204 L 51.661049 119.870204 C 53.254485 119.870204 54.051203 120.443213 54.051203 121.593155 L 54.051203 133.634194 C 54.051203 134.784137 53.254485 135.357146 51.661049 135.357146 L 30.934607 135.357146 C 29.341171 135.357146 28.544453 134.784137 28.544453 133.634194 L 28.544453 121.593155 C 28.544453 120.443213 29.341171 119.870204 30.934607 119.870204 Z M 30.934607 119.870204 " transform="matrix(0.995294,0,0,-0.995294,0.464874,168.403765)"/>
<path style="fill-rule:nonzero;fill:rgb(84.312439%,89.01825%,94.116211%);fill-opacity:1;stroke-width:1.1;stroke-linecap:butt;stroke-linejoin:miter;stroke:rgb(48.626709%,55.293274%,62.744141%);stroke-opacity:1;stroke-miterlimit:10;" d="M 30.934607 99.799189 L 51.661049 99.799189 C 53.254485 99.799189 54.051203 100.372198 54.051203 101.518216 L 54.051203 113.56318 C 54.051203 114.709198 53.254485 115.282207 51.661049 115.282207 L 30.934607 115.282207 C 29.341171 115.282207 28.544453 114.709198 28.544453 113.56318 L 28.544453 101.518216 C 28.544453 100.372198 29.341171 99.799189 30.934607 99.799189 Z M 30.934607 99.799189 " transform="matrix(0.995294,0,0,-0.995294,0.464874,168.403765)"/>
<path style="fill-rule:nonzero;fill:rgb(84.312439%,89.01825%,94.116211%);fill-opacity:1;stroke-width:1.1;stroke-linecap:butt;stroke-linejoin:miter;stroke:rgb(48.626709%,55.293274%,62.744141%);stroke-opacity:1;stroke-miterlimit:10;" d="M 30.934607 68.25622 L 51.661049 68.25622 C 53.254485 68.25622 54.051203 68.829229 54.051203 69.975247 L 54.051203 82.020211 C 54.051203 83.166229 53.254485 83.739238 51.661049 83.739238 L 30.934607 83.739238 C 29.341171 83.739238 28.544453 83.166229 28.544453 82.020211 L 28.544453 69.975247 C 28.544453 68.829229 29.341171 68.25622 30.934607 68.25622 Z M 30.934607 68.25622 " transform="matrix(0.995294,0,0,-0.995294,0.464874,168.403765)"/>
<path style="fill-rule:nonzero;fill:rgb(92.547607%,92.547607%,92.547607%);fill-opacity:1;stroke-width:1.1;stroke-linecap:butt;stroke-linejoin:miter;stroke:rgb(70.979309%,70.979309%,70.979309%);stroke-opacity:1;stroke-dasharray:1.1,1.815;stroke-miterlimit:10;" d="M 30.934607 39.578297 L 51.661049 39.578297 C 53.254485 39.578297 54.051203 40.151306 54.051203 41.301249 L 54.051203 53.342287 C 54.051203 54.49223 53.254485 55.065239 51.661049 55.065239 L 30.934607 55.065239 C 29.341171 55.065239 28.544453 54.49223 28.544453 53.342287 L 28.544453 41.301249 C 28.544453 40.151306 29.341171 39.578297 30.934607 39.578297 Z M 30.934607 39.578297 " transform="matrix(0.995294,0,0,-0.995294,0.464874,168.403765)"/>
<path style="fill-rule:nonzero;fill:rgb(49.411011%,34.117126%,76.077271%);fill-opacity:1;stroke-width:1.3;stroke-linecap:butt;stroke-linejoin:miter;stroke:rgb(36.862183%,20.783997%,69.410706%);stroke-opacity:1;stroke-miterlimit:10;" d="M 108.255501 107.538736 L 157.679491 107.538736 C 160.336526 107.538736 161.667006 108.496367 161.667006 110.407705 L 161.667006 136.216659 C 161.667006 138.127998 160.336526 139.085629 157.679491 139.085629 L 108.255501 139.085629 C 105.598466 139.085629 104.271911 138.127998 104.271911 136.216659 L 104.271911 110.407705 C 104.271911 108.496367 105.598466 107.538736 108.255501 107.538736 Z M 108.255501 107.538736 " transform="matrix(0.995294,0,0,-0.995294,0.464874,168.403765)"/>
<path style="fill-rule:nonzero;fill:rgb(49.411011%,34.117126%,76.077271%);fill-opacity:1;stroke-width:1.3;stroke-linecap:butt;stroke-linejoin:miter;stroke:rgb(36.862183%,20.783997%,69.410706%);stroke-opacity:1;stroke-miterlimit:10;" d="M 108.255501 68.829229 L 157.679491 68.829229 C 160.336526 68.829229 161.667006 69.782936 161.667006 71.694275 L 161.667006 97.503228 C 161.667006 99.414567 160.336526 100.372198 157.679491 100.372198 L 108.255501 100.372198 C 105.598466 100.372198 104.271911 99.414567 104.271911 97.503228 L 104.271911 71.694275 C 104.271911 69.782936 105.598466 68.829229 108.255501 68.829229 Z M 108.255501 68.829229 " transform="matrix(0.995294,0,0,-0.995294,0.464874,168.403765)"/>
<path style="fill-rule:nonzero;fill:rgb(94.900513%,94.900513%,94.900513%);fill-opacity:1;stroke-width:1;stroke-linecap:butt;stroke-linejoin:miter;stroke:rgb(61.959839%,61.959839%,61.959839%);stroke-opacity:1;stroke-dasharray:3,2;stroke-miterlimit:10;" d="M 121.010839 44.739303 L 144.924153 44.739303 C 146.521514 44.739303 147.318232 45.312312 147.318232 46.462254 L 147.318232 56.784266 C 147.318232 57.930284 146.521514 58.503293 144.924153 58.503293 L 121.010839 58.503293 C 119.417403 58.503293 118.620685 57.930284 118.620685 56.784266 L 118.620685 46.462254 C 118.620685 45.312312 119.417403 44.739303 121.010839 44.739303 Z M 121.010839 44.739303 " transform="matrix(0.995294,0,0,-0.995294,0.464874,168.403765)"/>
<path style="fill-rule:nonzero;fill:rgb(94.900513%,94.900513%,94.900513%);fill-opacity:1;stroke-width:1;stroke-linecap:butt;stroke-linejoin:miter;stroke:rgb(61.959839%,61.959839%,61.959839%);stroke-opacity:1;stroke-dasharray:3,2;stroke-miterlimit:10;" d="M 208.696917 106.392718 L 232.610231 106.392718 C 234.207592 106.392718 235.00431 106.965727 235.00431 108.115669 L 235.00431 118.437681 C 235.00431 119.583699 234.207592 120.156708 232.610231 120.156708 L 208.696917 120.156708 C 207.103481 120.156708 206.306763 119.583699 206.306763 118.437681 L 206.306763 108.115669 C 206.306763 106.965727 207.103481 106.392718 208.696917 106.392718 Z M 208.696917 106.392718 " transform="matrix(0.995294,0,0,-0.995294,0.464874,168.403765)"/>
<path style="fill-rule:nonzero;fill:rgb(49.411011%,34.117126%,76.077271%);fill-opacity:1;stroke-width:1.3;stroke-linecap:butt;stroke-linejoin:miter;stroke:rgb(36.862183%,20.783997%,69.410706%);stroke-opacity:1;stroke-miterlimit:10;" d="M 195.941579 55.924753 L 245.365569 55.924753 C 248.022604 55.924753 249.353084 56.878459 249.353084 58.789798 L 249.353084 84.598751 C 249.353084 86.51009 248.022604 87.467721 245.365569 87.467721 L 195.941579 87.467721 C 193.284544 87.467721 191.957989 86.51009 191.957989 84.598751 L 191.957989 58.789798 C 191.957989 56.878459 193.284544 55.924753 195.941579 55.924753 Z M 195.941579 55.924753 " transform="matrix(0.995294,0,0,-0.995294,0.464874,168.403765)"/>
<path style="fill-rule:nonzero;fill:rgb(27.058411%,15.293884%,62.744141%);fill-opacity:1;stroke-width:1.3;stroke-linecap:butt;stroke-linejoin:miter;stroke:rgb(19.215393%,10.588074%,57.254028%);stroke-opacity:1;stroke-miterlimit:10;" d="M 279.644067 88.900244 L 329.064132 88.900244 C 331.721167 88.900244 333.051647 89.857875 333.051647 91.769214 L 333.051647 117.578167 C 333.051647 119.489506 331.721167 120.443213 329.064132 120.443213 L 279.644067 120.443213 C 276.987032 120.443213 275.656552 119.489506 275.656552 117.578167 L 275.656552 91.769214 C 275.656552 89.857875 276.987032 88.900244 279.644067 88.900244 Z M 279.644067 88.900244 " transform="matrix(0.995294,0,0,-0.995294,0.464874,168.403765)"/>
<g style="fill:rgb(27.058411%,15.293884%,62.744141%);fill-opacity:1;">
  <use xlink:href="#glyph0-1" x="367.022306" y="65.716182"/>
</g>
<g style="fill:rgb(27.058411%,15.293884%,62.744141%);fill-opacity:1;">
  <use xlink:href="#glyph1-1" x="360.511099" y="66.835888"/>
</g>
<g style="fill:rgb(33.332825%,33.332825%,33.332825%);fill-opacity:1;">
  <use xlink:href="#glyph2-1" x="118.422601" y="9.125513"/>
  <use xlink:href="#glyph2-2" x="120.982995" y="9.125513"/>
</g>
<g style="fill:rgb(33.332825%,33.332825%,33.332825%);fill-opacity:1;">
  <use xlink:href="#glyph2-3" x="125.803951" y="9.125513"/>
  <use xlink:href="#glyph2-4" x="130.670939" y="9.125513"/>
  <use xlink:href="#glyph2-5" x="135.732009" y="9.125513"/>
  <use xlink:href="#glyph2-6" x="139.412109" y="9.125513"/>
  <use xlink:href="#glyph2-7" x="142.009827" y="9.125513"/>
</g>
<g style="fill:rgb(33.332825%,33.332825%,33.332825%);fill-opacity:1;">
  <use xlink:href="#glyph2-1" x="205.695676" y="9.125513"/>
  <use xlink:href="#glyph2-2" x="208.25607" y="9.125513"/>
</g>
<g style="fill:rgb(33.332825%,33.332825%,33.332825%);fill-opacity:1;">
  <use xlink:href="#glyph2-3" x="213.077026" y="9.125513"/>
  <use xlink:href="#glyph2-4" x="217.944014" y="9.125513"/>
  <use xlink:href="#glyph2-5" x="223.005085" y="9.125513"/>
  <use xlink:href="#glyph2-6" x="226.685185" y="9.125513"/>
  <use xlink:href="#glyph2-8" x="229.282903" y="9.125513"/>
</g>
<g style="fill:rgb(33.332825%,33.332825%,33.332825%);fill-opacity:1;">
  <use xlink:href="#glyph2-1" x="289.001794" y="9.125513"/>
  <use xlink:href="#glyph2-2" x="291.562188" y="9.125513"/>
</g>
<g style="fill:rgb(33.332825%,33.332825%,33.332825%);fill-opacity:1;">
  <use xlink:href="#glyph2-3" x="296.383144" y="9.125513"/>
  <use xlink:href="#glyph2-4" x="301.250132" y="9.125513"/>
  <use xlink:href="#glyph2-5" x="306.311203" y="9.125513"/>
  <use xlink:href="#glyph2-6" x="309.991303" y="9.125513"/>
  <use xlink:href="#glyph2-9" x="312.58902" y="9.125513"/>
</g>
<g style="fill:rgb(33.332825%,33.332825%,33.332825%);fill-opacity:1;">
  <use xlink:href="#glyph3-1" x="11.506685" y="9.187719"/>
  <use xlink:href="#glyph3-2" x="16.246773" y="9.187719"/>
  <use xlink:href="#glyph3-3" x="20.837567" y="9.187719"/>
  <use xlink:href="#glyph3-4" x="25.577655" y="9.187719"/>
  <use xlink:href="#glyph3-5" x="28.50382" y="9.187719"/>
  <use xlink:href="#glyph3-6" x="33.236443" y="9.187719"/>
  <use xlink:href="#glyph3-7" x="35.61022" y="9.187719"/>
  <use xlink:href="#glyph3-6" x="40.357773" y="9.187719"/>
  <use xlink:href="#glyph3-8" x="42.731549" y="9.187719"/>
  <use xlink:href="#glyph3-9" x="45.642785" y="9.187719"/>
  <use xlink:href="#glyph3-10" x="47.717973" y="9.187719"/>
  <use xlink:href="#glyph3-3" x="52.450596" y="9.187719"/>
  <use xlink:href="#glyph3-11" x="57.190685" y="9.187719"/>
  <use xlink:href="#glyph3-4" x="61.923308" y="9.187719"/>
  <use xlink:href="#glyph3-12" x="64.849473" y="9.187719"/>
  <use xlink:href="#glyph3-13" x="68.738585" y="9.187719"/>
</g>
<g style="fill:rgb(12.940979%,12.940979%,12.940979%);fill-opacity:1;">
  <use xlink:href="#glyph4-1" x="36.09356" y="42.463559"/>
</g>
<g style="fill:rgb(12.940979%,12.940979%,12.940979%);fill-opacity:1;">
  <use xlink:href="#glyph5-1" x="40.672253" y="43.769882"/>
</g>
<g style="fill:rgb(12.940979%,12.940979%,12.940979%);fill-opacity:1;">
  <use xlink:href="#glyph6-1" x="44.073797" y="44.684309"/>
</g>
<g style="fill:rgb(12.940979%,12.940979%,12.940979%);fill-opacity:1;">
  <use xlink:href="#glyph4-1" x="36.09356" y="62.4422"/>
</g>
<g style="fill:rgb(12.940979%,12.940979%,12.940979%);fill-opacity:1;">
  <use xlink:href="#glyph5-1" x="40.672253" y="63.748524"/>
</g>
<g style="fill:rgb(12.940979%,12.940979%,12.940979%);fill-opacity:1;">
  <use xlink:href="#glyph6-2" x="44.073797" y="64.66295"/>
</g>
<g style="fill:rgb(12.940979%,12.940979%,12.940979%);fill-opacity:1;">
  <use xlink:href="#glyph4-1" x="36.09356" y="93.837209"/>
</g>
<g style="fill:rgb(12.940979%,12.940979%,12.940979%);fill-opacity:1;">
  <use xlink:href="#glyph5-1" x="40.672253" y="95.143532"/>
</g>
<g style="fill:rgb(12.940979%,12.940979%,12.940979%);fill-opacity:1;">
  <use xlink:href="#glyph6-3" x="44.073797" y="96.057959"/>
</g>
<g style="fill:rgb(60.391235%,60.391235%,60.391235%);fill-opacity:1;">
  <use xlink:href="#glyph4-1" x="36.09356" y="122.378126"/>
</g>
<g style="fill:rgb(60.391235%,60.391235%,60.391235%);fill-opacity:1;">
  <use xlink:href="#glyph5-1" x="40.672253" y="123.684449"/>
</g>
<g style="fill:rgb(60.391235%,60.391235%,60.391235%);fill-opacity:1;">
  <use xlink:href="#glyph6-4" x="44.073797" y="124.598876"/>
</g>
<g style="fill:rgb(100%,100%,100%);fill-opacity:1;">
  <use xlink:href="#glyph7-1" x="129.14534" y="43.849932"/>
</g>
<g style="fill:rgb(92.939758%,90.586853%,96.469116%);fill-opacity:1;">
  <use xlink:href="#glyph8-1" x="111.634384" y="55.882376"/>
  <use xlink:href="#glyph8-2" x="115.028337" y="55.882376"/>
  <use xlink:href="#glyph8-3" x="118.804881" y="55.882376"/>
  <use xlink:href="#glyph8-4" x="122.717183" y="55.882376"/>
  <use xlink:href="#glyph8-5" x="124.432672" y="55.882376"/>
  <use xlink:href="#glyph8-6" x="129.603822" y="55.882376"/>
</g>
<g style="fill:rgb(92.939758%,90.586853%,96.469116%);fill-opacity:1;">
  <use xlink:href="#glyph8-7" x="132.015619" y="55.882376"/>
  <use xlink:href="#glyph8-8" x="135.810675" y="55.882376"/>
  <use xlink:href="#glyph8-9" x="139.59339" y="55.882376"/>
  <use xlink:href="#glyph8-2" x="143.511863" y="55.882376"/>
  <use xlink:href="#glyph8-10" x="147.288407" y="55.882376"/>
  <use xlink:href="#glyph8-11" x="151.200709" y="55.882376"/>
</g>
<g style="fill:rgb(100%,100%,100%);fill-opacity:1;">
  <use xlink:href="#glyph7-2" x="129.207545" y="82.38017"/>
</g>
<g style="fill:rgb(92.939758%,90.586853%,96.469116%);fill-opacity:1;">
  <use xlink:href="#glyph8-1" x="111.634384" y="94.412613"/>
  <use xlink:href="#glyph8-2" x="115.028337" y="94.412613"/>
  <use xlink:href="#glyph8-3" x="118.804881" y="94.412613"/>
  <use xlink:href="#glyph8-4" x="122.717183" y="94.412613"/>
  <use xlink:href="#glyph8-5" x="124.432672" y="94.412613"/>
  <use xlink:href="#glyph8-6" x="129.603822" y="94.412613"/>
</g>
<g style="fill:rgb(92.939758%,90.586853%,96.469116%);fill-opacity:1;">
  <use xlink:href="#glyph8-7" x="132.015619" y="94.412613"/>
  <use xlink:href="#glyph8-8" x="135.810675" y="94.412613"/>
  <use xlink:href="#glyph8-9" x="139.59339" y="94.412613"/>
  <use xlink:href="#glyph8-2" x="143.511863" y="94.412613"/>
  <use xlink:href="#glyph8-10" x="147.288407" y="94.412613"/>
  <use xlink:href="#glyph8-11" x="151.200709" y="94.412613"/>
</g>
<g style="fill:rgb(43.920898%,43.920898%,43.920898%);fill-opacity:1;">
  <use xlink:href="#glyph9-1" x="119.37124" y="118.322485"/>
</g>
<g style="fill:rgb(43.920898%,43.920898%,43.920898%);fill-opacity:1;">
  <use xlink:href="#glyph9-2" x="122.996555" y="118.322485"/>
</g>
<g style="fill:rgb(43.920898%,43.920898%,43.920898%);fill-opacity:1;">
  <use xlink:href="#glyph9-3" x="127.037204" y="118.322485"/>
</g>
<g style="fill:rgb(43.920898%,43.920898%,43.920898%);fill-opacity:1;">
  <use xlink:href="#glyph9-3" x="129.748141" y="118.322485"/>
</g>
<g style="fill:rgb(43.920898%,43.920898%,43.920898%);fill-opacity:1;">
  <use xlink:href="#glyph9-4" x="132.459079" y="118.322485"/>
</g>
<g style="fill:rgb(43.920898%,43.920898%,43.920898%);fill-opacity:1;">
  <use xlink:href="#glyph9-5" x="136.361283" y="118.322485"/>
</g>
<g style="fill:rgb(43.920898%,43.920898%,43.920898%);fill-opacity:1;">
  <use xlink:href="#glyph9-6" x="138.457269" y="118.322485"/>
</g>
<g style="fill:rgb(43.920898%,43.920898%,43.920898%);fill-opacity:1;">
  <use xlink:href="#glyph10-1" x="142.359473" y="119.465518"/>
</g>
<g style="fill:rgb(43.920898%,43.920898%,43.920898%);fill-opacity:1;">
  <use xlink:href="#glyph9-1" x="208.137257" y="56.76512"/>
</g>
<g style="fill:rgb(43.920898%,43.920898%,43.920898%);fill-opacity:1;">
  <use xlink:href="#glyph9-2" x="211.762572" y="56.76512"/>
</g>
<g style="fill:rgb(43.920898%,43.920898%,43.920898%);fill-opacity:1;">
  <use xlink:href="#glyph9-3" x="215.803221" y="56.76512"/>
</g>
<g style="fill:rgb(43.920898%,43.920898%,43.920898%);fill-opacity:1;">
  <use xlink:href="#glyph9-3" x="218.514158" y="56.76512"/>
</g>
<g style="fill:rgb(43.920898%,43.920898%,43.920898%);fill-opacity:1;">
  <use xlink:href="#glyph9-4" x="221.225095" y="56.76512"/>
</g>
<g style="fill:rgb(43.920898%,43.920898%,43.920898%);fill-opacity:1;">
  <use xlink:href="#glyph9-5" x="225.1273" y="56.76512"/>
</g>
<g style="fill:rgb(43.920898%,43.920898%,43.920898%);fill-opacity:1;">
  <use xlink:href="#glyph9-7" x="227.223285" y="56.76512"/>
</g>
<g style="fill:rgb(100%,100%,100%);fill-opacity:1;">
  <use xlink:href="#glyph7-3" x="216.612809" y="95.223583"/>
</g>
<g style="fill:rgb(92.939758%,90.586853%,96.469116%);fill-opacity:1;">
  <use xlink:href="#glyph8-1" x="198.907459" y="107.256026"/>
  <use xlink:href="#glyph8-2" x="202.301412" y="107.256026"/>
  <use xlink:href="#glyph8-3" x="206.077956" y="107.256026"/>
  <use xlink:href="#glyph8-4" x="209.990258" y="107.256026"/>
  <use xlink:href="#glyph8-5" x="211.705747" y="107.256026"/>
  <use xlink:href="#glyph8-6" x="216.876897" y="107.256026"/>
</g>
<g style="fill:rgb(92.939758%,90.586853%,96.469116%);fill-opacity:1;">
  <use xlink:href="#glyph8-7" x="219.288694" y="107.256026"/>
  <use xlink:href="#glyph8-8" x="223.083751" y="107.256026"/>
  <use xlink:href="#glyph8-9" x="226.866465" y="107.256026"/>
  <use xlink:href="#glyph8-2" x="230.784938" y="107.256026"/>
  <use xlink:href="#glyph8-10" x="234.561482" y="107.256026"/>
  <use xlink:href="#glyph8-11" x="238.473785" y="107.256026"/>
</g>
<g style="fill:rgb(100%,100%,100%);fill-opacity:1;">
  <use xlink:href="#glyph7-4" x="299.965581" y="62.401528"/>
</g>
<g style="fill:rgb(92.939758%,90.586853%,96.469116%);fill-opacity:1;">
  <use xlink:href="#glyph8-1" x="282.213577" y="74.433972"/>
  <use xlink:href="#glyph8-2" x="285.60753" y="74.433972"/>
  <use xlink:href="#glyph8-3" x="289.384074" y="74.433972"/>
  <use xlink:href="#glyph8-4" x="293.296376" y="74.433972"/>
  <use xlink:href="#glyph8-5" x="295.011865" y="74.433972"/>
  <use xlink:href="#glyph8-6" x="300.183015" y="74.433972"/>
</g>
<g style="fill:rgb(92.939758%,90.586853%,96.469116%);fill-opacity:1;">
  <use xlink:href="#glyph8-7" x="302.594812" y="74.433972"/>
  <use xlink:href="#glyph8-8" x="306.389868" y="74.433972"/>
  <use xlink:href="#glyph8-9" x="310.172583" y="74.433972"/>
  <use xlink:href="#glyph8-2" x="314.091056" y="74.433972"/>
  <use xlink:href="#glyph8-10" x="317.8676" y="74.433972"/>
  <use xlink:href="#glyph8-11" x="321.779902" y="74.433972"/>
</g>
<path style=" stroke:none;fill-rule:nonzero;fill:rgb(49.411011%,34.117126%,76.077271%);fill-opacity:1;" d="M 17.171875 163.117188 L 24.707031 163.117188 C 25.765625 163.117188 26.292969 162.738281 26.292969 161.976562 L 26.292969 157.695312 C 26.292969 156.933594 25.765625 156.554688 24.707031 156.554688 L 17.171875 156.554688 C 16.113281 156.554688 15.585938 156.933594 15.585938 157.695312 L 15.585938 161.976562 C 15.585938 162.738281 16.113281 163.117188 17.171875 163.117188 Z M 17.171875 163.117188 "/>
<g clip-path="url(#clip2)" clip-rule="nonzero">
<path style="fill:none;stroke-width:1;stroke-linecap:butt;stroke-linejoin:miter;stroke:rgb(49.411011%,34.117126%,76.077271%);stroke-opacity:1;stroke-miterlimit:10;" d="M 16.785994 5.311573 L 24.356777 5.311573 C 25.420376 5.311573 25.950213 5.692271 25.950213 6.457591 L 25.950213 10.759083 C 25.950213 11.524403 25.420376 11.905101 24.356777 11.905101 L 16.785994 11.905101 C 15.722395 11.905101 15.192558 11.524403 15.192558 10.759083 L 15.192558 6.457591 C 15.192558 5.692271 15.722395 5.311573 16.785994 5.311573 Z M 16.785994 5.311573 " transform="matrix(0.995294,0,0,-0.995294,0.464874,168.403765)"/>
</g>
<g style="fill:rgb(26.66626%,26.66626%,26.66626%);fill-opacity:1;">
  <use xlink:href="#glyph11-1" x="30.063499" y="161.755919"/>
  <use xlink:href="#glyph11-2" x="34.234777" y="161.755919"/>
  <use xlink:href="#glyph11-3" x="38.261538" y="161.755919"/>
  <use xlink:href="#glyph11-1" x="42.432815" y="161.755919"/>
  <use xlink:href="#glyph11-4" x="46.604093" y="161.755919"/>
  <use xlink:href="#glyph11-5" x="50.643992" y="161.755919"/>
  <use xlink:href="#glyph11-6" x="53.219017" y="161.755919"/>
  <use xlink:href="#glyph11-7" x="55.30794" y="161.755919"/>
  <use xlink:href="#glyph11-8" x="57.869827" y="161.755919"/>
  <use xlink:href="#glyph11-9" x="61.482745" y="161.755919"/>
  <use xlink:href="#glyph11-10" x="65.502937" y="161.755919"/>
  <use xlink:href="#glyph11-11" x="71.901086" y="161.755919"/>
  <use xlink:href="#glyph11-12" x="76.072363" y="161.755919"/>
  <use xlink:href="#glyph11-5" x="80.237072" y="161.755919"/>
  <use xlink:href="#glyph11-4" x="82.812097" y="161.755919"/>
  <use xlink:href="#glyph11-3" x="86.851996" y="161.755919"/>
  <use xlink:href="#glyph11-6" x="91.023273" y="161.755919"/>
  <use xlink:href="#glyph11-13" x="93.112197" y="161.755919"/>
  <use xlink:href="#glyph11-9" x="97.276905" y="161.755919"/>
  <use xlink:href="#glyph11-3" x="101.297097" y="161.755919"/>
  <use xlink:href="#glyph11-4" x="105.468375" y="161.755919"/>
  <use xlink:href="#glyph11-14" x="109.508274" y="161.755919"/>
</g>
<path style=" stroke:none;fill-rule:nonzero;fill:rgb(94.900513%,94.900513%,94.900513%);fill-opacity:1;" d="M 118.328125 163.117188 L 125.867188 163.117188 C 126.921875 163.117188 127.453125 162.738281 127.453125 161.976562 L 127.453125 157.695312 C 127.453125 156.933594 126.921875 156.554688 125.867188 156.554688 L 118.328125 156.554688 C 117.269531 156.554688 116.742188 156.933594 116.742188 157.695312 L 116.742188 161.976562 C 116.742188 162.738281 117.269531 163.117188 118.328125 163.117188 Z M 118.328125 163.117188 "/>
<g clip-path="url(#clip3)" clip-rule="nonzero">
<path style="fill:none;stroke-width:1;stroke-linecap:butt;stroke-linejoin:miter;stroke:rgb(61.959839%,61.959839%,61.959839%);stroke-opacity:1;stroke-dasharray:3,2;stroke-miterlimit:10;" d="M 118.420524 5.311573 L 125.995232 5.311573 C 127.054906 5.311573 127.588668 5.692271 127.588668 6.457591 L 127.588668 10.759083 C 127.588668 11.524403 127.054906 11.905101 125.995232 11.905101 L 118.420524 11.905101 C 117.356925 11.905101 116.827088 11.524403 116.827088 10.759083 L 116.827088 6.457591 C 116.827088 5.692271 117.356925 5.311573 118.420524 5.311573 Z M 118.420524 5.311573 " transform="matrix(0.995294,0,0,-0.995294,0.464874,168.403765)"/>
</g>
<g style="fill:rgb(26.66626%,26.66626%,26.66626%);fill-opacity:1;">
  <use xlink:href="#glyph11-15" x="131.220928" y="161.755919"/>
  <use xlink:href="#glyph11-3" x="133.047093" y="161.755919"/>
  <use xlink:href="#glyph11-4" x="137.218371" y="161.755919"/>
  <use xlink:href="#glyph11-13" x="141.25827" y="161.755919"/>
  <use xlink:href="#glyph11-5" x="145.422979" y="161.755919"/>
  <use xlink:href="#glyph11-15" x="147.998003" y="161.755919"/>
  <use xlink:href="#glyph11-5" x="149.824169" y="161.755919"/>
  <use xlink:href="#glyph11-16" x="152.399194" y="161.755919"/>
  <use xlink:href="#glyph11-6" x="156.288007" y="161.755919"/>
  <use xlink:href="#glyph11-8" x="158.376931" y="161.755919"/>
  <use xlink:href="#glyph11-2" x="161.989848" y="161.755919"/>
  <use xlink:href="#glyph11-17" x="166.016609" y="161.755919"/>
</g>
<g style="fill:rgb(26.66626%,26.66626%,26.66626%);fill-opacity:1;">
  <use xlink:href="#glyph11-17" x="168.607584" y="161.755919"/>
  <use xlink:href="#glyph11-16" x="171.307418" y="161.755919"/>
</g>
<path style=" stroke:none;fill-rule:nonzero;fill:rgb(92.547607%,92.547607%,92.547607%);fill-opacity:1;" d="M 187.75 163.117188 L 195.289062 163.117188 C 196.34375 163.117188 196.875 162.738281 196.875 161.976562 L 196.875 157.695312 C 196.875 156.933594 196.34375 156.554688 195.289062 156.554688 L 187.75 156.554688 C 186.691406 156.554688 186.164062 156.933594 186.164062 157.695312 L 186.164062 161.976562 C 186.164062 162.738281 186.691406 163.117188 187.75 163.117188 Z M 187.75 163.117188 "/>
<g clip-path="url(#clip4)" clip-rule="nonzero">
<path style="fill:none;stroke-width:1;stroke-linecap:butt;stroke-linejoin:miter;stroke:rgb(61.959839%,61.959839%,61.959839%);stroke-opacity:1;stroke-dasharray:1,1.65;stroke-miterlimit:10;" d="M 188.170635 5.311573 L 195.745343 5.311573 C 196.805017 5.311573 197.338779 5.692271 197.338779 6.457591 L 197.338779 10.759083 C 197.338779 11.524403 196.805017 11.905101 195.745343 11.905101 L 188.170635 11.905101 C 187.107036 11.905101 186.577199 11.524403 186.577199 10.759083 L 186.577199 6.457591 C 186.577199 5.692271 187.107036 5.311573 188.170635 5.311573 Z M 188.170635 5.311573 " transform="matrix(0.995294,0,0,-0.995294,0.464874,168.403765)"/>
</g>
<g style="fill:rgb(26.66626%,26.66626%,26.66626%);fill-opacity:1;">
  <use xlink:href="#glyph11-12" x="200.642692" y="161.141635"/>
</g>
<g style="fill:rgb(26.66626%,26.66626%,26.66626%);fill-opacity:1;">
  <use xlink:href="#glyph11-13" x="204.821786" y="161.141635"/>
</g>
<g style="fill:rgb(26.66626%,26.66626%,26.66626%);fill-opacity:1;">
  <use xlink:href="#glyph11-12" x="209.000879" y="161.141635"/>
</g>
<g style="fill:rgb(26.66626%,26.66626%,26.66626%);fill-opacity:1;">
  <use xlink:href="#glyph11-18" x="213.179972" y="161.141635"/>
</g>
<g style="fill:rgb(26.66626%,26.66626%,26.66626%);fill-opacity:1;">
  <use xlink:href="#glyph11-4" x="216.615328" y="161.141635"/>
</g>
<g style="fill:rgb(26.66626%,26.66626%,26.66626%);fill-opacity:1;">
  <use xlink:href="#glyph11-3" x="220.672075" y="161.141635"/>
</g>
<g style="fill:rgb(26.66626%,26.66626%,26.66626%);fill-opacity:1;">
  <use xlink:href="#glyph11-6" x="224.857608" y="161.141635"/>
</g>
<g style="fill:rgb(26.66626%,26.66626%,26.66626%);fill-opacity:1;">
  <use xlink:href="#glyph11-7" x="226.953594" y="161.141635"/>
</g>
<g style="fill:rgb(26.66626%,26.66626%,26.66626%);fill-opacity:1;">
  <use xlink:href="#glyph9-6" x="229.526086" y="161.141635"/>
</g>
<g style="fill:rgb(26.66626%,26.66626%,26.66626%);fill-opacity:1;">
  <use xlink:href="#glyph10-2" x="233.428291" y="162.284669"/>
</g>
<g style="fill:rgb(26.66626%,26.66626%,26.66626%);fill-opacity:1;">
  <use xlink:href="#glyph11-14" x="236.55543" y="161.141635"/>
</g>
<path style=" stroke:none;fill-rule:nonzero;fill:rgb(27.058411%,15.293884%,62.744141%);fill-opacity:1;" d="M 257.171875 163.117188 L 264.710938 163.117188 C 265.765625 163.117188 266.296875 162.738281 266.296875 161.976562 L 266.296875 157.695312 C 266.296875 156.933594 265.765625 156.554688 264.710938 156.554688 L 257.171875 156.554688 C 256.113281 156.554688 255.585938 156.933594 255.585938 157.695312 L 255.585938 161.976562 C 255.585938 162.738281 256.113281 163.117188 257.171875 163.117188 Z M 257.171875 163.117188 "/>
<g clip-path="url(#clip5)" clip-rule="nonzero">
<path style="fill:none;stroke-width:1;stroke-linecap:butt;stroke-linejoin:miter;stroke:rgb(27.058411%,15.293884%,62.744141%);stroke-opacity:1;stroke-miterlimit:10;" d="M 257.920746 5.311573 L 265.495454 5.311573 C 266.555128 5.311573 267.08889 5.692271 267.08889 6.457591 L 267.08889 10.759083 C 267.08889 11.524403 266.555128 11.905101 265.495454 11.905101 L 257.920746 11.905101 C 256.857147 11.905101 256.32731 11.524403 256.32731 10.759083 L 256.32731 6.457591 C 256.32731 5.692271 256.857147 5.311573 257.920746 5.311573 Z M 257.920746 5.311573 " transform="matrix(0.995294,0,0,-0.995294,0.464874,168.403765)"/>
</g>
<g style="fill:rgb(26.66626%,26.66626%,26.66626%);fill-opacity:1;">
  <use xlink:href="#glyph11-9" x="270.064457" y="161.755919"/>
  <use xlink:href="#glyph11-12" x="274.084649" y="161.755919"/>
  <use xlink:href="#glyph11-5" x="278.249358" y="161.755919"/>
  <use xlink:href="#glyph11-11" x="280.824383" y="161.755919"/>
  <use xlink:href="#glyph11-12" x="284.99566" y="161.755919"/>
  <use xlink:href="#glyph11-5" x="289.160369" y="161.755919"/>
</g>
</g>
</svg>
